<svg xmlns="http://www.w3.org/2000/svg" enable-background="new 0 0 1200 900" viewBox="0 0 1200 900"><path fill="#9bb2e1" d="M341.359 431.62a.502.502 0 0 1-.082-.006 105.513 105.513 0 0 1-5.922-1.152.5.5 0 0 1-.379-.598.504.504 0 0 1 .598-.378c1.94.435 3.913.82 5.865 1.141a.5.5 0 0 1-.08.994zm-11.712-2.626a.503.503 0 0 1-.137-.02 109.21 109.21 0 0 1-5.75-1.81.5.5 0 0 1 .326-.946c1.881.65 3.798 1.254 5.698 1.795a.5.5 0 0 1-.137.981zm-11.337-3.917a.496.496 0 0 1-.189-.037c-1.844-.752-3.7-1.567-5.516-2.423a.5.5 0 1 1 .426-.904c1.8.848 3.64 1.656 5.467 2.401a.5.5 0 0 1-.188.963zm-10.849-5.11a.498.498 0 0 1-.236-.059 119.653 119.653 0 0 1-5.233-2.981.5.5 0 0 1 .517-.856 117.92 117.92 0 0 0 5.189 2.956.5.5 0 0 1-.237.94zm-10.265-6.195a.497.497 0 0 1-.28-.085 124.634 124.634 0 0 1-4.91-3.485.5.5 0 0 1 .598-.802 124.273 124.273 0 0 0 4.871 3.458.5.5 0 0 1-.28.914zm-9.607-7.174a.5.5 0 0 1-.318-.114 130.344 130.344 0 0 1-4.555-3.937.5.5 0 0 1 .672-.741 128.982 128.982 0 0 0 4.52 3.906.5.5 0 0 1-.319.886zm-8.885-8.05a.498.498 0 0 1-.353-.146 133.01 133.01 0 0 1-4.172-4.341.5.5 0 1 1 .736-.677 131.38 131.38 0 0 0 4.141 4.308.5.5 0 0 1-.352.855zm635.11-7.464c-1.147 0-2.293-.022-3.437-.065a.5.5 0 0 1 .037-.999c1.984.075 3.974.083 5.966.028a.515.515 0 0 1 .514.486.5.5 0 0 1-.486.514c-.866.024-1.729.036-2.593.036zm8.566-.388a.5.5 0 0 1-.044-.998c1.957-.175 3.951-.413 5.928-.708a.5.5 0 1 1 .147.99 103.332 103.332 0 0 1-6.03.716zm-17.966-.104a.528.528 0 0 1-.053-.003 84.62 84.62 0 0 1-5.974-.851.5.5 0 1 1 .176-.985c1.934.348 3.92.63 5.903.841a.5.5 0 0 1-.052.998zm-633.822-.879a.498.498 0 0 1-.383-.178 134.35 134.35 0 0 1-3.763-4.701.5.5 0 0 1 .795-.607 133.901 133.901 0 0 0 3.734 4.665.5.5 0 0 1-.383.821zm663.649-.778a.5.5 0 0 1-.1-.99c1.923-.397 3.879-.855 5.814-1.363a.5.5 0 0 1 .254.967c-1.953.512-3.926.975-5.867 1.376a.496.496 0 0 1-.101.01zm-41.628-.467a.499.499 0 0 1-.125-.016 78.836 78.836 0 0 1-5.784-1.73.5.5 0 0 1 .323-.946 77.82 77.82 0 0 0 5.71 1.707.5.5 0 0 1-.124.985zm53.23-2.572a.5.5 0 0 1-.151-.977c1.879-.596 3.78-1.251 5.648-1.947a.5.5 0 1 1 .35.938 123.68 123.68 0 0 1-5.695 1.962.503.503 0 0 1-.152.024zm-64.574-1.303a.496.496 0 0 1-.197-.041 83.586 83.586 0 0 1-5.452-2.581.5.5 0 1 1 .46-.888 82.382 82.382 0 0 0 5.386 2.55.5.5 0 0 1-.197.96zm75.817-2.877a.5.5 0 0 1-.196-.96 129.78 129.78 0 0 0 5.44-2.473.5.5 0 0 1 .436.9c-1.802.87-3.646 1.708-5.483 2.493a.501.501 0 0 1-.197.04zm-693.777-1.533a.497.497 0 0 1-.41-.215 135.69 135.69 0 0 1-3.328-5.018.5.5 0 1 1 .845-.535 136.274 136.274 0 0 0 3.303 4.983.5.5 0 0 1-.41.785zm607.314-1.098a.497.497 0 0 1-.258-.073 95.543 95.543 0 0 1-5.047-3.298.5.5 0 1 1 .572-.82 94.967 94.967 0 0 0 4.994 3.264.5.5 0 0 1-.26.927zm97.27-2.581a.5.5 0 0 1-.237-.94 133.732 133.732 0 0 0 5.197-2.957.5.5 0 0 1 .514.858 134.226 134.226 0 0 1-5.237 2.979.497.497 0 0 1-.237.06zm-107.102-4.277a.5.5 0 0 1-.31-.108c-1.54-1.214-3.1-2.51-4.632-3.851a.5.5 0 1 1 .658-.753c1.52 1.33 3.066 2.615 4.594 3.819a.5.5 0 0 1-.31.893zm117.4-1.887a.5.5 0 0 1-.275-.918 162.884 162.884 0 0 0 4.934-3.38.5.5 0 1 1 .58.816 164.253 164.253 0 0 1-4.965 3.4.495.495 0 0 1-.274.082zm-721.284-.302a.501.501 0 0 1-.435-.253 137.7 137.7 0 0 1-2.864-5.297.5.5 0 0 1 .89-.457 134.465 134.465 0 0 0 2.843 5.26.5.5 0 0 1-.434.747zm594.847-5.699a.498.498 0 0 1-.345-.139 156.155 156.155 0 0 1-4.264-4.249.5.5 0 1 1 .719-.695 156.067 156.067 0 0 0 4.236 4.222.5.5 0 0 1-.346.861zm136.211-.953a.5.5 0 0 1-.304-.897c1.556-1.19 3.134-2.439 4.692-3.712a.5.5 0 1 1 .633.774 185.37 185.37 0 0 1-4.717 3.732.498.498 0 0 1-.304.103zm-736.521-4.03a.5.5 0 0 1-.455-.292 132.422 132.422 0 0 1-2.37-5.538.5.5 0 0 1 .927-.372 131.936 131.936 0 0 0 2.353 5.496.5.5 0 0 1-.455.707zm745.814-3.558a.5.5 0 0 1-.328-.878c1.475-1.28 2.977-2.62 4.466-3.986a.5.5 0 0 1 .676.737 222.854 222.854 0 0 1-4.486 4.004.5.5 0 0 1-.328.123zm-153.85-.08a.5.5 0 0 1-.37-.164 220.487 220.487 0 0 1-3.971-4.519.5.5 0 1 1 .76-.65c1.34 1.568 2.67 3.081 3.953 4.498a.501.501 0 0 1-.371.835zM246.98 348.22c-.207 0-.4-.13-.473-.336a127.94 127.94 0 0 1-1.843-5.735.5.5 0 0 1 .96-.283c.56 1.899 1.176 3.814 1.829 5.69a.501.501 0 0 1-.473.664zm759.126-.527a.5.5 0 0 1-.347-.86c1.4-1.349 2.835-2.763 4.266-4.203a.5.5 0 1 1 .709.705 266.124 266.124 0 0 1-4.281 4.219.497.497 0 0 1-.347.14zm-170.508-1.088a.498.498 0 0 1-.387-.183 350.82 350.82 0 0 1-3.762-4.687.5.5 0 0 1 .785-.62c1.239 1.57 2.488 3.13 3.75 4.674a.5.5 0 0 1-.386.816zm178.965-7.422a.501.501 0 0 1-.361-.846 345.452 345.452 0 0 0 4.097-4.37.5.5 0 1 1 .735.678 345.78 345.78 0 0 1-4.11 4.383.497.497 0 0 1-.361.155zm-186.408-1.993a.5.5 0 0 1-.397-.195 726.944 726.944 0 0 1-3.64-4.776.5.5 0 0 1 .796-.603 725.14 725.14 0 0 0 3.637 4.769.5.5 0 0 1-.396.805zm-584.569-.476a.5.5 0 0 1-.485-.382c-.334-1.37-.647-2.756-.929-4.12-.122-.588-.239-1.176-.354-1.765a.5.5 0 0 1 .982-.19 121.013 121.013 0 0 0 1.271 5.84.5.5 0 0 1-.485.617zm779.116-6.35a.5.5 0 0 1-.373-.833 454.288 454.288 0 0 0 3.966-4.493.5.5 0 1 1 .754.657 482.99 482.99 0 0 1-3.974 4.502.502.502 0 0 1-.373.167zm-201.797-2.738a.498.498 0 0 1-.4-.2l-3.61-4.793a.5.5 0 0 1 .8-.602l3.61 4.795a.5.5 0 0 1-.4.8zm-579.602-2.689a.501.501 0 0 1-.494-.427c-.29-1.978-.54-3.988-.743-5.976a.5.5 0 1 1 .994-.102c.202 1.973.45 3.97.74 5.932a.5.5 0 0 1-.497.573zm789.29-3.614a.5.5 0 0 1-.38-.824 781.583 781.583 0 0 0 3.875-4.576.5.5 0 1 1 .766.644 783.734 783.734 0 0 1-3.881 4.581.498.498 0 0 1-.38.175zm-216.925-3.27a.498.498 0 0 1-.396-.196l-.76-.99a463.678 463.678 0 0 0-2.908-3.747.5.5 0 0 1 .787-.617 469.903 469.903 0 0 1 2.913 3.754l.76.992a.5.5 0 0 1-.396.804zm-573.585-5.05a.5.5 0 0 1-.498-.47 140.55 140.55 0 0 1-.223-6.018.5.5 0 0 1 1-.015c.031 1.983.105 3.993.221 5.974a.5.5 0 0 1-.5.529zm798.235-.863a.5.5 0 0 1-.385-.82c1.28-1.539 2.553-3.08 3.824-4.621a.5.5 0 0 1 .772.636 1618.27 1618.27 0 0 1-3.826 4.624.498.498 0 0 1-.385.181zm-232.052-3.527a.5.5 0 0 1-.39-.187 490.54 490.54 0 0 0-3.785-4.646.5.5 0 1 1 .772-.637 491.01 491.01 0 0 1 3.793 4.657.5.5 0 0 1-.39.813zm-566.373-7.604h-.013a.5.5 0 0 1-.487-.513c.052-1.982.145-4.005.28-6.013a.517.517 0 0 1 .532-.466.5.5 0 0 1 .466.533 145.955 145.955 0 0 0-.278 5.971.5.5 0 0 1-.5.488zm558.737-1.652a.499.499 0 0 1-.382-.177 474.49 474.49 0 0 0-3.899-4.551.5.5 0 0 1 .756-.656 504.475 504.475 0 0 1 3.907 4.561.5.5 0 0 1-.382.823zm-7.862-9.064a.5.5 0 0 1-.374-.168 482.47 482.47 0 0 0-4.01-4.454.5.5 0 1 1 .738-.674c1.35 1.48 2.689 2.968 4.02 4.464a.5.5 0 0 1-.374.832zm-550.07-1.253a.5.5 0 0 1-.498-.554c.214-1.985.471-3.994.763-5.97a.5.5 0 0 1 .99.146 151.252 151.252 0 0 0-.76 5.932.5.5 0 0 1-.495.446zm541.988-7.615a.498.498 0 0 1-.365-.159 506.73 506.73 0 0 0-4.12-4.355.5.5 0 0 1 .723-.691c1.384 1.446 2.76 2.9 4.127 4.363a.5.5 0 0 1-.365.842zm-540.23-4.25a.5.5 0 0 1-.492-.592c.368-1.964.78-3.946 1.225-5.893a.5.5 0 1 1 .975.223 156.68 156.68 0 0 0-1.218 5.854.5.5 0 0 1-.49.408zm531.931-4.418a.5.5 0 0 1-.357-.15 490.135 490.135 0 0 0-4.223-4.254.5.5 0 1 1 .705-.708 494.01 494.01 0 0 1 4.233 4.261.5.5 0 0 1-.358.85zm-529.267-7.278a.5.5 0 0 1-.483-.63 163.978 163.978 0 0 1 1.665-5.782.5.5 0 1 1 .955.294 161.953 161.953 0 0 0-1.654 5.748.502.502 0 0 1-.483.37zm520.76-1.186a.5.5 0 0 1-.35-.141 497 497 0 0 0-4.324-4.15.5.5 0 1 1 .688-.726 499.14 499.14 0 0 1 4.334 4.158.5.5 0 0 1-.349.859zm-8.709-8.255a.499.499 0 0 1-.34-.133 493.488 493.488 0 0 0-4.423-4.044.5.5 0 0 1 .67-.742 495.588 495.588 0 0 1 4.433 4.052.5.5 0 0 1-.34.867zm-508.521-2.023a.499.499 0 0 1-.472-.665 168.61 168.61 0 0 1 2.082-5.645.5.5 0 0 1 .932.363 171.12 171.12 0 0 0-2.07 5.612.499.499 0 0 1-.472.335zm499.617-6.02a.5.5 0 0 1-.331-.125 474.11 474.11 0 0 0-4.52-3.936.5.5 0 0 1 .652-.758 505.462 505.462 0 0 1 4.53 3.944.5.5 0 0 1-.331.875zm-495.263-5.159a.5.5 0 0 1-.459-.698 174.137 174.137 0 0 1 2.48-5.481.5.5 0 0 1 .904.427 172.29 172.29 0 0 0-2.466 5.45.5.5 0 0 1-.459.302zm486.165-2.667a.499.499 0 0 1-.321-.117 525.003 525.003 0 0 0-4.615-3.827.5.5 0 0 1 .635-.773 537.13 537.13 0 0 1 4.623 3.834.5.5 0 0 1-.322.883zm-9.283-7.605a.499.499 0 0 1-.312-.11 489.99 489.99 0 0 0-4.704-3.715.5.5 0 1 1 .616-.788c1.579 1.231 3.15 2.472 4.713 3.722a.5.5 0 0 1-.313.89zm-471.743-.568a.502.502 0 0 1-.444-.73 175.82 175.82 0 0 1 2.86-5.294.5.5 0 0 1 .871.49c-.978 1.74-1.935 3.511-2.843 5.263a.5.5 0 0 1-.444.27zm462.282-6.813a.499.499 0 0 1-.303-.102c-1.59-1.21-3.187-2.411-4.79-3.602a.5.5 0 1 1 .595-.803 508.772 508.772 0 0 1 4.8 3.609.5.5 0 0 1-.302.898zm-456.394-3.64a.501.501 0 0 1-.427-.761 169.849 169.849 0 0 1 3.225-5.081.5.5 0 1 1 .834.55 171.991 171.991 0 0 0-3.206 5.052.499.499 0 0 1-.426.24zm446.758-3.513a.5.5 0 0 1-.293-.095 516.836 516.836 0 0 0-4.876-3.486.5.5 0 0 1 .577-.817 490.638 490.638 0 0 1 4.885 3.493.5.5 0 0 1-.293.905zm-440.152-6.504a.498.498 0 0 1-.406-.79 175.509 175.509 0 0 1 3.573-4.84.5.5 0 0 1 .795.607 172.289 172.289 0 0 0-3.554 4.813.499.499 0 0 1-.408.21zm430.35-.417a.495.495 0 0 1-.284-.088 507.642 507.642 0 0 0-4.958-3.369.5.5 0 1 1 .557-.83 491.02 491.02 0 0 1 4.968 3.375.5.5 0 0 1-.283.912zm-9.965-6.684a.496.496 0 0 1-.274-.082 492.119 492.119 0 0 0-5.037-3.25.5.5 0 0 1 .537-.843c1.69 1.075 3.372 2.16 5.047 3.256a.5.5 0 0 1-.273.919zM277.935 202a.5.5 0 0 1-.386-.818 168.65 168.65 0 0 1 3.91-4.576.499.499 0 1 1 .747.663 168.78 168.78 0 0 0-3.885 4.55.499.499 0 0 1-.386.181zm402.965-4.02a.497.497 0 0 1-.264-.075 500.91 500.91 0 0 0-5.113-3.128.5.5 0 0 1 .517-.856c1.713 1.034 3.421 2.079 5.123 3.134a.5.5 0 0 1-.263.925zm-395.009-4.964a.498.498 0 0 1-.362-.844c1.38-1.455 2.8-2.9 4.217-4.294a.5.5 0 1 1 .7.712 181.055 181.055 0 0 0-4.193 4.27.498.498 0 0 1-.362.156zm384.735-1.237a.496.496 0 0 1-.253-.069 513.107 513.107 0 0 0-5.186-3.005.5.5 0 1 1 .496-.868c1.738.993 3.47 1.997 5.196 3.01a.5.5 0 0 1-.253.932zm-10.419-5.953a.498.498 0 0 1-.242-.063c-1.747-.97-3.499-1.93-5.257-2.88a.5.5 0 1 1 .475-.88c1.762.951 3.518 1.913 5.269 2.885a.5.5 0 0 1-.245.938zm-365.77-1.234a.5.5 0 0 1-.339-.867 187.651 187.651 0 0 1 4.487-4.009.5.5 0 0 1 .655.757 188.1 188.1 0 0 0-4.463 3.987.497.497 0 0 1-.34.132zm355.213-4.468a.497.497 0 0 1-.233-.057 503.095 503.095 0 0 0-5.324-2.753.5.5 0 1 1 .453-.89c1.784.908 3.563 1.827 5.336 2.757a.5.5 0 0 1-.232.943zm-346.139-3.383a.5.5 0 0 1-.315-.888 195.214 195.214 0 0 1 4.73-3.717.5.5 0 1 1 .605.796 191.278 191.278 0 0 0-4.704 3.697.499.499 0 0 1-.316.112zm335.446-2.063a.498.498 0 0 1-.221-.052 493.968 493.968 0 0 0-5.389-2.623.5.5 0 0 1 .432-.902c1.805.866 3.605 1.742 5.4 2.629a.5.5 0 0 1-.222.948zm-10.82-5.186a.5.5 0 0 1-.21-.047 487.586 487.586 0 0 0-5.452-2.492.5.5 0 1 1 .41-.912c1.826.821 3.648 1.654 5.463 2.497a.5.5 0 0 1-.21.954zm-315.08-.018a.5.5 0 0 1-.292-.907c1.624-1.16 3.288-2.31 4.946-3.422a.5.5 0 1 1 .557.831 200.408 200.408 0 0 0-4.92 3.404.501.501 0 0 1-.292.094zm304.137-4.905a.496.496 0 0 1-.2-.042 485.87 485.87 0 0 0-5.51-2.359.5.5 0 1 1 .388-.921c1.846.776 3.686 1.564 5.52 2.363a.5.5 0 0 1-.198.959zm-294.171-1.773a.499.499 0 0 1-.267-.923 210.398 210.398 0 0 1 5.136-3.125.5.5 0 0 1 .508.862 209.235 209.235 0 0 0-5.112 3.11.494.494 0 0 1-.265.076zm283.11-2.883a.5.5 0 0 1-.188-.037 489.515 489.515 0 0 0-5.566-2.223.5.5 0 0 1 .366-.931 498.5 498.5 0 0 1 5.577 2.228.5.5 0 0 1-.189.963zm-272.775-3.204a.499.499 0 0 1-.241-.938c1.74-.96 3.526-1.911 5.304-2.828a.5.5 0 0 1 .46.889c-1.772.912-3.549 1.86-5.282 2.815a.496.496 0 0 1-.241.062zm261.605-1.179a.502.502 0 0 1-.177-.032 494.197 494.197 0 0 0-5.619-2.087.5.5 0 1 1 .342-.94c1.881.686 3.758 1.383 5.631 2.091a.5.5 0 0 1-.177.968zm-11.274-4.108a.498.498 0 0 1-.165-.028c-1.886-.66-3.776-1.31-5.67-1.947a.5.5 0 1 1 .32-.948c1.897.639 3.79 1.29 5.68 1.951a.5.5 0 0 1-.165.972zm-239.67-.21a.5.5 0 0 1-.216-.95c1.786-.86 3.62-1.713 5.45-2.535a.5.5 0 0 1 .41.913 224.66 224.66 0 0 0-5.426 2.523.495.495 0 0 1-.217.05zm228.295-3.618a.496.496 0 0 1-.153-.024c-1.9-.614-3.806-1.216-5.715-1.806a.5.5 0 0 1 .295-.955c1.913.591 3.822 1.194 5.726 1.81a.5.5 0 0 1-.153.975zm-217.35-1.293a.5.5 0 0 1-.192-.962 231.275 231.275 0 0 1 5.577-2.243.5.5 0 0 1 .361.933c-1.855.718-3.724 1.47-5.553 2.233a.496.496 0 0 1-.193.039zm205.886-2.25a.497.497 0 0 1-.143-.022l-.167-.049a475.996 475.996 0 0 0-5.59-1.612.5.5 0 0 1 .271-.963c1.871.527 3.738 1.066 5.602 1.616l.17.05a.5.5 0 0 1-.143.98zm-194.698-2.081a.5.5 0 0 1-.168-.971c1.875-.671 3.788-1.328 5.685-1.953a.5.5 0 1 1 .313.95 239.175 239.175 0 0 0-5.662 1.944.498.498 0 0 1-.168.03zm183.148-1.174a.498.498 0 0 1-.129-.017c-1.93-.516-3.863-1.02-5.8-1.511a.5.5 0 1 1 .246-.97c1.941.492 3.878.998 5.812 1.515a.5.5 0 0 1-.129.983zm-171.752-2.582a.5.5 0 0 1-.144-.978c1.906-.576 3.85-1.137 5.776-1.667a.5.5 0 1 1 .266.964 243.488 243.488 0 0 0-5.753 1.66.498.498 0 0 1-.145.021zm160.118-.366a.503.503 0 0 1-.116-.014 426.702 426.702 0 0 0-5.839-1.353.501.501 0 0 1 .22-.976c1.953.439 3.904.89 5.852 1.356a.5.5 0 0 1-.117.987zm-11.708-2.626a.51.51 0 0 1-.102-.01c-1.955-.41-3.914-.804-5.875-1.185a.5.5 0 0 1 .19-.981c1.966.38 3.929.777 5.89 1.187a.5.5 0 0 1-.103.99zm-136.84-.19a.5.5 0 0 1-.12-.986 251.4 251.4 0 0 1 5.851-1.381.5.5 0 1 1 .219.976c-1.942.433-3.903.896-5.828 1.375a.501.501 0 0 1-.121.015zm125.06-2.093a.517.517 0 0 1-.089-.008c-1.967-.35-3.936-.686-5.907-1.005a.5.5 0 1 1 .16-.987c1.977.32 3.95.656 5.923 1.008a.5.5 0 0 1-.087.992zm-113.348-.523a.5.5 0 0 1-.095-.99c1.952-.386 3.941-.755 5.913-1.097a.5.5 0 1 1 .17.985c-1.963.34-3.945.708-5.89 1.093a.5.5 0 0 1-.098.01zm101.504-1.397a.493.493 0 0 1-.073-.006c-1.976-.288-3.955-.56-5.936-.816a.5.5 0 0 1 .129-.992c1.985.257 3.97.53 5.952.819a.5.5 0 0 1-.072.995zm-89.678-.65a.5.5 0 0 1-.073-.994l1.212-.177c1.58-.227 3.161-.439 4.744-.637a.5.5 0 1 1 .125.992c-1.577.198-3.152.41-4.726.635l-1.208.176a.506.506 0 0 1-.074.006zm77.778-.887a.518.518 0 0 1-.057-.003 348.483 348.483 0 0 0-5.96-.617.5.5 0 0 1-.45-.545.513.513 0 0 1 .544-.45c1.993.188 3.985.394 5.978.618a.5.5 0 0 1-.055.997zm-65.872-.604a.5.5 0 0 1-.05-.998c1.993-.205 3.988-.388 5.986-.55a.5.5 0 0 1 .08.997c-1.99.161-3.977.344-5.964.548a.477.477 0 0 1-.052.003zm53.927-.528-.04-.001a331.377 331.377 0 0 0-5.977-.406.5.5 0 1 1 .059-.998c1.999.117 3.997.253 5.995.407a.501.501 0 0 1-.037.998zm-41.966-.441a.5.5 0 0 1-.03-1 287.596 287.596 0 0 1 6.023-.294.5.5 0 0 1 .02 1 288.246 288.246 0 0 0-6.013.294zm29.986-.262h-.02a313.95 313.95 0 0 0-5.988-.184.5.5 0 0 1 .011-1h.01c2.003.042 4.005.104 6.008.185a.5.5 0 0 1-.02 1zm-17.996-.203a.5.5 0 0 1-.009-1c1.828-.033 3.658-.05 5.486-.05h.524a.5.5 0 0 1 0 1h-.524c-1.823 0-3.645.017-5.468.05h-.009z"/><path fill="#edf5fc" d="M913.732 432.307c-10.356-1.143-20.76-1.57-30.932-1.375-53.02 1.02-105.82 14.52-158.56 9.03-15.8-1.65-32.54-5.61-43.19-17.39-22.78-25.2-4.16-65.92-12.74-98.79-5.3-20.29-21.24-36.63-39.86-46.28-18.61-9.65-39.74-13.33-60.64-15.01a352.57 352.57 0 0 0-104.86 7.31c-43.54 9.73-89.84 32.7-103.02 75.33-8.42 27.22-1.18 57.28 12.63 82.2 6.34 11.44 14.19 22.58 16.01 35.52 2.94 20.91-10.93 40.99-28.14 53.21-23.96 17.02-53.99 22.8-83.16 26.38-29.17 3.59-59.04 5.53-86.38 16.33-27.34 10.8-52.41 32.58-58.01 61.44-4.74 24.36 5.25 49.76 20.99 68.95 18.15 22.136 44.242 37.404 72.23 43.212h738.754c-8.08-13.182-14.47-28.397-7.914-41.782 3.78-7.72 11.17-12.9 17.86-18.3 30.27-24.38 51.38-59.87 58.36-98.1 5.09-27.88 2.53-57.89-11.63-82.44-21.399-37.123-64.19-54.63-107.798-59.445"/><path fill="#9bb2e1" d="M595.492 274.942v433.01c0 13.46-10.952 24.422-24.412 24.422H335.566c-13.45 0-24.39-10.963-24.39-24.423v-433.01c0-13.47 10.94-24.39 24.39-24.39H571.08c13.46 0 24.412 10.92 24.412 24.39z"/><path fill="#fff" d="M335.572 723.423c-8.524 0-15.459-6.942-15.459-15.475V274.95c0-8.532 6.935-15.474 15.459-15.474H571.08c8.531 0 15.473 6.942 15.473 15.474v432.998c0 8.533-6.942 15.475-15.473 15.475h-235.51z"/><path d="M338.627 400.163v137.043c0 3.42 2.769 6.352 6.352 6.352h219.78c3.582 0 6.35-2.932 6.35-6.352V400.163c0-3.582-2.768-6.35-6.35-6.35H344.98c-3.583 0-6.352 2.768-6.352 6.35z" opacity=".05"/><path d="M517.728 668.467c0 6.02-2.44 11.46-6.38 15.41a21.704 21.704 0 0 1-15.4 6.38h-85.31c-12.03 0-21.79-9.76-21.79-21.79 0-6.02 2.44-11.46 6.38-15.4 3.95-3.94 9.4-6.38 15.41-6.38h85.31c12.03 0 21.78 9.75 21.78 21.78z" opacity=".04"/><path d="M518.418 594.905c0 6.41-2.6 12.21-6.8 16.42-4.21 4.19-10 6.79-16.41 6.79h-82.46c-12.82 0-23.21-10.39-23.21-23.21 0-6.41 2.6-12.21 6.79-16.42 4.21-4.19 10.01-6.79 16.42-6.79h82.46c12.81 0 23.21 10.39 23.21 23.21z" opacity=".06"/><circle cx="421.46" cy="269.614" r="3.38" fill="#9bb2e1"/><path fill="#9bb2e1" d="M488.587 269.707c0 .99-.81 1.78-1.8 1.78h-55.74c-.99 0-1.8-.79-1.8-1.78s.81-1.8 1.8-1.8h55.74c.99 0 1.8.81 1.8 1.8z"/><path fill="#ffc837" d="M127.192 701.49h147.143a3.757 3.757 0 0 0 3.757-3.757v-35.731a3.757 3.757 0 0 0-3.757-3.757H127.192a3.757 3.757 0 0 0-3.757 3.757v35.73a3.757 3.757 0 0 0 3.757 3.758z"/><path fill="#e5ac2e" d="M277.913 698.183c-.522 1.902-2.245 3.307-4.313 3.307H127.927c-2.068 0-3.791-1.405-4.314-3.307h154.3zM136.31 669.06v21.627c0 .86.705 1.554 1.554 1.554h6.026c.86 0 1.554-.693 1.554-1.554V669.06c0-.861-.693-1.567-1.554-1.567h-6.026c-.849 0-1.554.706-1.554 1.567z"/><path d="M136.369 668.662c.048-.012.083-.012.131-.012h6.026c.86 0 1.554.706 1.554 1.566v21.627c0 .132-.012.264-.06.383.801-.06 1.423-.73 1.423-1.542v-21.627c0-.861-.693-1.567-1.554-1.567h-6.026a1.55 1.55 0 0 0-1.494 1.172z" opacity=".15"/><path fill="#e5ac2e" d="M156.272 669.06v21.627c0 .86.705 1.554 1.554 1.554h6.026c.86 0 1.554-.693 1.554-1.554V669.06c0-.861-.693-1.567-1.554-1.567h-6.026c-.849 0-1.554.706-1.554 1.567z"/><path d="M156.335 668.662c.047-.012.083-.012.131-.012h6.026c.86 0 1.554.706 1.554 1.566v21.627c0 .132-.012.264-.06.383.801-.06 1.423-.73 1.423-1.542v-21.627c0-.861-.694-1.567-1.554-1.567h-6.026a1.55 1.55 0 0 0-1.494 1.172z" opacity=".15"/><path fill="#e5ac2e" d="M176.234 669.06v21.627c0 .86.705 1.554 1.554 1.554h6.026c.86 0 1.554-.693 1.554-1.554V669.06c0-.861-.693-1.567-1.554-1.567h-6.026c-.849 0-1.554.706-1.554 1.567z"/><path d="M176.289 668.662c.047-.012.083-.012.13-.012h6.027c.86 0 1.554.706 1.554 1.566v21.627c0 .132-.012.264-.06.383a1.541 1.541 0 0 0 1.423-1.542v-21.627c0-.861-.694-1.567-1.554-1.567h-6.026a1.55 1.55 0 0 0-1.494 1.172z" opacity=".15"/><path fill="#e5ac2e" d="M196.196 669.06v21.627c0 .86.705 1.554 1.554 1.554h6.026c.86 0 1.554-.693 1.554-1.554V669.06c0-.861-.693-1.567-1.554-1.567h-6.026c-.849 0-1.554.706-1.554 1.567z"/><path d="M196.254 668.662c.048-.012.084-.012.132-.012h6.025c.861 0 1.555.706 1.555 1.566v21.627c0 .132-.012.264-.06.383a1.541 1.541 0 0 0 1.423-1.542v-21.627c0-.861-.694-1.567-1.555-1.567h-6.025a1.55 1.55 0 0 0-1.495 1.172z" opacity=".15"/><path fill="#e5ac2e" d="M216.158 669.06v21.627c0 .86.705 1.554 1.554 1.554h6.026c.86 0 1.554-.693 1.554-1.554V669.06c0-.861-.693-1.567-1.554-1.567h-6.026c-.849 0-1.554.706-1.554 1.567z"/><path d="M216.22 668.662c.048-.012.084-.012.132-.012h6.025c.861 0 1.554.706 1.554 1.566v21.627c0 .132-.011.264-.06.383a1.541 1.541 0 0 0 1.423-1.542v-21.627c0-.861-.693-1.567-1.554-1.567h-6.025a1.55 1.55 0 0 0-1.495 1.172z" opacity=".15"/><path fill="#e5ac2e" d="M236.12 669.06v21.627c0 .86.705 1.554 1.554 1.554h6.026c.86 0 1.554-.693 1.554-1.554V669.06c0-.861-.693-1.567-1.554-1.567h-6.026c-.849 0-1.554.706-1.554 1.567z"/><path d="M236.186 668.662c.036-.012.084-.012.12-.012h6.025c.86 0 1.554.706 1.554 1.566v21.627c0 .132-.012.264-.06.383a1.533 1.533 0 0 0 1.423-1.542v-21.627c0-.861-.681-1.567-1.554-1.567h-6.026c-.717 0-1.315.502-1.482 1.172z" opacity=".15"/><path fill="#e5ac2e" d="M256.082 669.06v21.627c0 .86.705 1.554 1.554 1.554h6.026c.86 0 1.554-.693 1.554-1.554V669.06c0-.861-.693-1.567-1.554-1.567h-6.026c-.849 0-1.554.706-1.554 1.567z"/><path d="M256.14 668.662c.048-.012.083-.012.131-.012h6.026c.86 0 1.554.706 1.554 1.566v21.627c0 .132-.012.264-.06.383.801-.06 1.423-.73 1.423-1.542v-21.627c0-.861-.693-1.567-1.554-1.567h-6.026a1.55 1.55 0 0 0-1.494 1.172z" opacity=".15"/><path fill="#ffc837" d="M111.797 744.735h147.142a3.757 3.757 0 0 0 3.758-3.757v-35.731a3.757 3.757 0 0 0-3.758-3.757H111.797a3.757 3.757 0 0 0-3.757 3.757v35.73a3.757 3.757 0 0 0 3.757 3.758z"/><path fill="#e5ac2e" d="M262.518 741.428c-.522 1.902-2.245 3.307-4.313 3.307H112.532c-2.068 0-3.791-1.405-4.314-3.307h154.3zM120.915 712.305v21.627c0 .86.705 1.554 1.554 1.554h6.026c.86 0 1.554-.693 1.554-1.554v-21.627c0-.861-.693-1.567-1.554-1.567h-6.026c-.849 0-1.554.706-1.554 1.567z"/><path d="M120.974 711.907c.048-.012.083-.012.131-.012h6.026c.86 0 1.554.706 1.554 1.566v21.627c0 .132-.012.264-.06.383.801-.06 1.423-.73 1.423-1.542v-21.627c0-.861-.693-1.567-1.554-1.567h-6.026a1.55 1.55 0 0 0-1.494 1.172z" opacity=".15"/><path fill="#e5ac2e" d="M140.877 712.305v21.627c0 .86.705 1.554 1.554 1.554h6.026c.86 0 1.554-.693 1.554-1.554v-21.627c0-.861-.693-1.567-1.554-1.567h-6.026c-.849 0-1.554.706-1.554 1.567z"/><path d="M140.94 711.907c.047-.012.083-.012.131-.012h6.026c.86 0 1.554.706 1.554 1.566v21.627c0 .132-.012.264-.06.383.801-.06 1.423-.73 1.423-1.542v-21.627c0-.861-.694-1.567-1.554-1.567h-6.026a1.55 1.55 0 0 0-1.494 1.172z" opacity=".15"/><path fill="#e5ac2e" d="M160.84 712.305v21.627c0 .86.704 1.554 1.553 1.554h6.026c.86 0 1.554-.693 1.554-1.554v-21.627c0-.861-.693-1.567-1.554-1.567h-6.026c-.849 0-1.554.706-1.554 1.567z"/><path d="M160.894 711.907c.047-.012.083-.012.13-.012h6.027c.86 0 1.554.706 1.554 1.566v21.627c0 .132-.012.264-.06.383a1.542 1.542 0 0 0 1.423-1.542v-21.627c0-.861-.694-1.567-1.555-1.567h-6.025a1.55 1.55 0 0 0-1.494 1.172z" opacity=".15"/><path fill="#e5ac2e" d="M180.801 712.305v21.627c0 .86.705 1.554 1.554 1.554h6.026c.86 0 1.554-.693 1.554-1.554v-21.627c0-.861-.693-1.567-1.554-1.567h-6.026c-.849 0-1.554.706-1.554 1.567z"/><path d="M180.86 711.907c.047-.012.083-.012.13-.012h6.026c.861 0 1.555.706 1.555 1.566v21.627c0 .132-.012.264-.06.383a1.541 1.541 0 0 0 1.423-1.542v-21.627c0-.861-.694-1.567-1.555-1.567h-6.025a1.55 1.55 0 0 0-1.495 1.172z" opacity=".15"/><path fill="#e5ac2e" d="M200.763 712.305v21.627c0 .86.705 1.554 1.554 1.554h6.026c.86 0 1.554-.693 1.554-1.554v-21.627c0-.861-.693-1.567-1.554-1.567h-6.026c-.849 0-1.554.706-1.554 1.567z"/><path d="M200.825 711.907c.048-.012.084-.012.132-.012h6.025c.861 0 1.554.706 1.554 1.566v21.627c0 .132-.011.264-.06.383a1.542 1.542 0 0 0 1.423-1.542v-21.627c0-.861-.693-1.567-1.554-1.567h-6.026a1.55 1.55 0 0 0-1.494 1.172z" opacity=".15"/><path fill="#e5ac2e" d="M220.725 712.305v21.627c0 .86.705 1.554 1.554 1.554h6.026c.86 0 1.554-.693 1.554-1.554v-21.627c0-.861-.693-1.567-1.554-1.567h-6.026c-.849 0-1.554.706-1.554 1.567z"/><path d="M220.79 711.907c.037-.012.085-.012.12-.012h6.026c.86 0 1.554.706 1.554 1.566v21.627c0 .132-.012.264-.06.383a1.533 1.533 0 0 0 1.423-1.542v-21.627c0-.861-.681-1.567-1.554-1.567h-6.026c-.717 0-1.315.502-1.482 1.172z" opacity=".15"/><path fill="#e5ac2e" d="M240.687 712.305v21.627c0 .86.705 1.554 1.554 1.554h6.026c.86 0 1.554-.693 1.554-1.554v-21.627c0-.861-.693-1.567-1.554-1.567h-6.026c-.849 0-1.554.706-1.554 1.567z"/><path d="M240.745 711.907c.048-.012.083-.012.131-.012h6.026c.86 0 1.554.706 1.554 1.566v21.627c0 .132-.012.264-.06.383.801-.06 1.423-.73 1.423-1.542v-21.627c0-.861-.693-1.567-1.554-1.567h-6.026a1.55 1.55 0 0 0-1.494 1.172z" opacity=".15"/><path fill="#ffc837" d="M122.711 658.58h147.143a3.757 3.757 0 0 0 3.757-3.757v-35.731a3.757 3.757 0 0 0-3.757-3.757H122.71a3.757 3.757 0 0 0-3.757 3.757v35.73a3.757 3.757 0 0 0 3.757 3.758z"/><path fill="#e5ac2e" d="M273.433 655.273c-.523 1.902-2.246 3.307-4.314 3.307H123.446c-2.068 0-3.791-1.405-4.314-3.307h154.3zM131.83 626.15v21.627c0 .86.705 1.554 1.554 1.554h6.025c.861 0 1.554-.693 1.554-1.554V626.15c0-.861-.693-1.566-1.554-1.566h-6.025c-.85 0-1.554.705-1.554 1.566z"/><path d="M131.888 625.752c.048-.012.084-.012.132-.012h6.025c.861 0 1.554.706 1.554 1.566v21.628c0 .132-.012.263-.06.383.802-.06 1.423-.73 1.423-1.543v-21.627c0-.861-.693-1.567-1.554-1.567h-6.026a1.55 1.55 0 0 0-1.494 1.172z" opacity=".15"/><path fill="#e5ac2e" d="M151.792 626.15v21.627c0 .86.705 1.554 1.554 1.554h6.025c.861 0 1.554-.693 1.554-1.554V626.15c0-.861-.693-1.566-1.554-1.566h-6.025c-.85 0-1.554.705-1.554 1.566z"/><path d="M151.854 625.752c.048-.012.084-.012.131-.012h6.026c.86 0 1.554.706 1.554 1.566v21.628c0 .132-.012.263-.06.383.801-.06 1.423-.73 1.423-1.543v-21.627c0-.861-.693-1.567-1.554-1.567h-6.026a1.55 1.55 0 0 0-1.494 1.172z" opacity=".15"/><path fill="#e5ac2e" d="M171.754 626.15v21.627c0 .86.705 1.554 1.554 1.554h6.025c.861 0 1.554-.693 1.554-1.554V626.15c0-.861-.693-1.566-1.554-1.566h-6.025c-.85 0-1.554.705-1.554 1.566z"/><path d="M171.808 625.752c.048-.012.083-.012.131-.012h6.026c.86 0 1.554.706 1.554 1.566v21.628c0 .132-.012.263-.06.383a1.542 1.542 0 0 0 1.423-1.543v-21.627c0-.861-.693-1.567-1.554-1.567h-6.026a1.55 1.55 0 0 0-1.494 1.172z" opacity=".15"/><path fill="#e5ac2e" d="M191.716 626.15v21.627c0 .86.705 1.554 1.554 1.554h6.025c.861 0 1.554-.693 1.554-1.554V626.15c0-.861-.693-1.566-1.554-1.566h-6.025c-.85 0-1.554.705-1.554 1.566z"/><path d="M191.774 625.752c.047-.012.083-.012.131-.012h6.026c.86 0 1.554.706 1.554 1.566v21.628c0 .132-.012.263-.06.383a1.541 1.541 0 0 0 1.423-1.543v-21.627c0-.861-.694-1.567-1.554-1.567h-6.026a1.55 1.55 0 0 0-1.494 1.172z" opacity=".15"/><path fill="#e5ac2e" d="M211.678 626.15v21.627c0 .86.705 1.554 1.554 1.554h6.025c.861 0 1.554-.693 1.554-1.554V626.15c0-.861-.693-1.566-1.554-1.566h-6.025c-.85 0-1.554.705-1.554 1.566z"/><path d="M211.74 625.752c.047-.012.083-.012.131-.012h6.026c.86 0 1.554.706 1.554 1.566v21.628c0 .132-.012.263-.06.383a1.542 1.542 0 0 0 1.423-1.543v-21.627c0-.861-.694-1.567-1.555-1.567h-6.025a1.55 1.55 0 0 0-1.495 1.172z" opacity=".15"/><path fill="#e5ac2e" d="M231.64 626.15v21.627c0 .86.705 1.554 1.554 1.554h6.025c.861 0 1.554-.693 1.554-1.554V626.15c0-.861-.693-1.566-1.554-1.566h-6.025c-.85 0-1.554.705-1.554 1.566z"/><path d="M231.705 625.752c.036-.012.084-.012.12-.012h6.025c.861 0 1.555.706 1.555 1.566v21.628c0 .132-.012.263-.06.383a1.533 1.533 0 0 0 1.423-1.543v-21.627c0-.861-.682-1.567-1.555-1.567h-6.025c-.718 0-1.315.503-1.483 1.172z" opacity=".15"/><path fill="#e5ac2e" d="M251.602 626.15v21.627c0 .86.705 1.554 1.554 1.554h6.025c.861 0 1.554-.693 1.554-1.554V626.15c0-.861-.693-1.566-1.554-1.566h-6.025c-.85 0-1.554.705-1.554 1.566z"/><path d="M251.659 625.752c.048-.012.084-.012.132-.012h6.025c.861 0 1.554.706 1.554 1.566v21.628c0 .132-.011.263-.06.383.802-.06 1.423-.73 1.423-1.543v-21.627c0-.861-.693-1.567-1.554-1.567h-6.025a1.55 1.55 0 0 0-1.495 1.172z" opacity=".15"/><path d="M197.327 699.269a.524.524 0 0 0 .516.567h3.932a.506.506 0 0 0 .504-.453l.48-3.882h2.053l.378.857.277.63 1.122 2.533a.507.507 0 0 0 .466.315h20.39c.29 0 .517-.227.517-.516v-2.81c0-1.009-.29-1.98-.844-2.811a2.862 2.862 0 0 0-.48-.63 4.822 4.822 0 0 0-1.473-1.172l-8.998-4.7s-.92-3.428-1.147-3.655c-.227-.227-16.282 0-16.282 0l-.68 7.523-.051.63-.68 7.574z"/><path fill="#fff" d="M198.007 691.695h10.019v-.63h-9.969zM205.19 696.358l.277.63h14.24a.32.32 0 0 0 .316-.315v-2.974h7.095a2.862 2.862 0 0 0-.48-.63h-6.93a.312.312 0 0 0-.315.315v2.974H205.19z"/><path fill="#ffc6b2" d="M247.075 530.529s8.234 45.5 7.893 45.364c-.341-.136-30.151.342-30.424 0s3.274-60.165 3.274-60.165l5.867 2.115 13.39 12.686z"/><path fill="#d250dc" d="M247.94 530.976c-.113-.732-.298-1.482-.49-2.31-4.65-20.095-14.664-30.519-16.685-31.567l-12.656 15.783-4.177 18.094c0 1.225 34.009 1.225 34.009 0z"/><path fill="#1258ff" d="m256.081 571.642-15.914-1.084s-21.748-12.081-22.607-11.76c-.86.323-8.056 19.872-7.734 20.195.322.322 18.153 19.55 18.153 19.55L194.564 685.7c0 2.806 23.535 2.216 23.535-.59l53.27-81.838c8.874-12.906.338-30.566-15.288-31.63z"/><path d="M267.385 699.269a.524.524 0 0 0 .517.567h3.932a.506.506 0 0 0 .504-.453l.479-3.882h2.054l.378.857.277.63 1.122 2.533a.507.507 0 0 0 .466.315h20.39c.29 0 .517-.227.517-.516v-2.81c0-1.009-.29-1.98-.844-2.811a2.863 2.863 0 0 0-.48-.63 4.823 4.823 0 0 0-1.474-1.172l-8.998-4.7s-.92-3.428-1.146-3.655c-.227-.227-16.282 0-16.282 0l-.68 7.523-.051.63-.68 7.574z"/><path fill="#fff" d="M268.066 691.695h10.019v-.63h-9.969zM275.25 696.358l.276.63h14.24a.32.32 0 0 0 .316-.315v-2.974h7.095a2.863 2.863 0 0 0-.48-.63h-6.93a.312.312 0 0 0-.315.315v2.974h-14.203z"/><path fill="#1258ff" d="m224.318 617.72 42.142 67.52 21.844-.393s-17.277-72.503-28.223-93.962a24.885 24.885 0 0 0-15.462-12.654l-35.223-6.972-34.11 1.516c-.053.138-.215.744-.448 1.717-4.615 19.194.413 43.263 23.169 43.242l26.31-.013z"/><path fill="#fff" d="M285.19 676.232c.023.142-1.549.526-4.76 1.103l-8.183 1.319c-3.227.46-4.84.588-4.863.443-.024-.146 1.549-.527 4.756-1.107l8.184-1.318c3.23-.457 4.843-.589 4.867-.44z"/><path fill="#d250dc" d="M240.17 570.554c-1.089 4.937-62.492 7.033-67.973 2.216-3.7-3.235-14.612-64.778-9.488-71.93.841-1.178 6.654-7.071 21.29-8.517l3.88-.111c8.032-.297 13.69-.106 22.088.467 10.486.722 18.849 2.502 21.022 4.758 5.282 5.483 3.586 24.454 4.767 41.163 1.112 15.73 4.73 30.52 4.413 31.954z"/><path fill="#ffc6b2" d="M182.596 529.878c-.25.25 0 13.178 0 13.178l35.773 5.82c1.721.525-1.32 13.795-1.32 13.795-.298-.037-48.499 11.208-56.922.533-6.738-8.539-5.47-34.076-5.47-34.076l27.939.75z"/><path fill="#d250dc" d="M186.836 531.854c-.168 4.709-33.981 2.88-34.268 1.583 0 0 3.575-19.013 6.055-25.993 4.058-11.424 14.83-11.07 14.83-11.07s10.04-1.211 13.383 8.523c2.305 6.707.08 24.81 0 26.957z"/><path fill="#fff" d="M236.952 576.71c.014-.07.98.05 2.907.373l3.612.636 1.13.207c.432.108.8.23 1.227.353a27.29 27.29 0 0 1 2.61.998 25.191 25.191 0 0 1 11.12 9.982c.883 1.449 1.506 2.988 2.229 4.49 1.632 3.574 2.83 6.255 3.601 8.05.772 1.794 1.12 2.702 1.052 2.732-.067.03-.54-.823-1.417-2.567-.876-1.744-2.156-4.379-3.84-7.917-.717-1.494-1.35-3.049-2.203-4.443a24.528 24.528 0 0 0-10.824-9.716 28.59 28.59 0 0 0-2.523-1.02l-1.147-.363-1.123-.24-3.582-.788c-1.904-.437-2.843-.693-2.829-.767zM236.098 632.755c-.12.08-1.455-1.71-3.985-5.438l-6.304-9.56-.934-1.468-.41-.654-.192-.306-.087-.141-.014-.03-1.393-.057-1.096-.065c-.585-.046-.876-.097-.876-.15s.291-.104.876-.15l1.096-.065 1.684-.056 1.908 2.773 6.304 9.559c2.427 3.796 3.549 5.725 3.423 5.808zM182.332 600.472c-.025-.083.566-.277 1.657-.827a13.662 13.662 0 0 0 4.276-3.373 12.433 12.433 0 0 0 2.752-5.46c.465-2.018.508-4.124.3-6.199-.229-2.454-.625-4.277-.833-5.497-.222-1.22-.302-1.836-.229-1.853.07-.017.284.566.62 1.764.321 1.2.815 3.012 1.111 5.52.213 2.127.172 4.306-.314 6.416a13.112 13.112 0 0 1-2.899 5.75c-1.714 1.916-3.46 2.83-4.617 3.296-1.177.461-1.81.521-1.824.463zM224.083 677.02c-.01.144-1.976.132-5.936-.094l-10.053-.725c-3.948-.344-5.895-.614-5.884-.761.01-.147 1.976-.131 5.932.09l10.053.725c3.951.349 5.899.615 5.888.766zM225.02 667.698c-.123-.073 1.022-2.273 3.512-6.62l6.458-10.967c2.59-4.28 3.959-6.35 4.086-6.275.126.075-1.022 2.273-3.506 6.617l-6.458 10.967c-2.596 4.284-3.961 6.354-4.091 6.278zM280.798 674.343c-.034.013-.192-.309-.476-.968a123.55 123.55 0 0 1-1.226-2.988 447.763 447.763 0 0 1-4.573-12.14 815.201 815.201 0 0 1-9.362-27.845 445.708 445.708 0 0 1-3.686-12.428 121.268 121.268 0 0 1-.827-3.121c-.171-.696-.239-1.049-.203-1.06.035-.01.17.323.406 1 .236.677.57 1.7 1.008 3.066l3.944 12.34a814.82 814.82 0 0 0 9.353 27.822l4.315 12.226c.477 1.355.829 2.371 1.049 3.053.22.682.313 1.03.278 1.043zM234.862 532.236c-.144-.001-.265-1.302-.307-3.933l.043-6.683c.077-2.627.215-3.927.362-3.926.148.001.265 1.303.311 3.93l-.044 6.684c-.08 2.629-.215 3.929-.365 3.928z"/><path fill="#0a48d8" d="m274.872 522.092-16.847 45.815c-.192.522-.69.87-1.246.87H222.78l17.824-48.472h33.021c.924 0 1.566.92 1.247 1.787z"/><path fill="#ffc6b2" d="m218.369 548.876 7.56-1.22c.275-.29 2.737-2.817 2.11-4.523-.676-1.82-9.67 5.743-9.67 5.743z"/><path fill="#2a0054" d="m240.604 520.305-17.824 48.471h-3.066c-.924 0-1.566-.92-1.247-1.786l16.847-45.815c.192-.523.69-.87 1.246-.87h4.044z"/><path fill="#0039b2" d="m240.604 520.305-17.824 48.471h-3.066c-.924 0-1.566-.92-1.247-1.786l16.847-45.815c.192-.523.69-.87 1.246-.87h4.044z"/><path fill="#ffc6b2" d="M217.049 562.671s16.79 4.233 19.188-8.033c2.334-11.896-10.35-7.276-11.091-7.003l-6.777 1.24-1.32 13.796zM206.334 481.871c-1.649 1.752-1.063 5.47-1.16 8.858.894 4.592-15.034 5.685-17.063-.018 1.45-4.956 1.494-11.717.396-16.975-1.097-5.258 17.827 8.135 17.827 8.135z"/><path fill="#ffc6b2" d="M207.075 482.818c-7.59 3.549-14.995-4.452-17.85-8.136a26.028 26.028 0 0 1-1.22-1.652c-.174-.254-6.421-2.24-4.41-7.564 1.04-2.786 6.32.27 6.32.27s3.15-10.44 7.893-10.668c4.743-.23 12.387 6.49 12.387 6.49s.155.682.292 1.796c.66 4.701 1.857 16.984-3.412 19.464z"/><path d="M215.312 461.224c-.746 1.628-2.552 2.166-4.825 2.13-5.101-.032-12.408-3.111-14.305-3.315-2.69-.361-3.327 5.945-3.965 6.47-.698.523-2.303-.773-2.303-.773s-5.28-3.056-6.32-.27c-2.01 5.324 4.237 7.31 4.411 7.564 0 0 .462.698 1.22 1.652l-.166 3.393s-7.706-9.078-8.725-12.565c-1.08-3.489 3.352-7.97 4.846-8.399 1.49-.365.143-10.569 1.593-12.842 1.446-2.214 11.078 1.148 14.664 2.102 3.584 1.012 8.51-.621 12.754 2.201 4.245 2.826 3.56 7.347 1.12 12.652z"/><path fill="#fff" d="M188.713 512.668c-.198.015-.171-1.802-1.172-5.224a22.442 22.442 0 0 0-4.141-7.974c-2.222-2.784-3.723-3.807-3.595-3.964.042-.057.438.162 1.175.693a18.725 18.725 0 0 1 2.944 2.849 23.112 23.112 0 0 1 4.264 8.21c.474 1.773.595 3.145.637 4.05.01.91-.04 1.359-.112 1.36zM187.532 526.828c.071 0 .146.201.217.6.06.401.195.997.197 1.864-.026.724-.232 1.54-.784 2.127-.54.581-1.265.908-1.994 1.058-.87.135-1.5.038-1.907-.03-.408-.076-.604-.16-.6-.233.004-.073.212-.127.617-.166.403-.048 1.013-.054 1.756-.23.624-.127 1.223-.41 1.632-.854.411-.439.582-1.052.608-1.704.058-.773.021-1.399.075-1.813.044-.415.107-.618.183-.619zM188.883 487.101l-3.77 3.456 12.646 9.179 2.637-5.433z"/><path fill="#fff" d="m200.396 494.303 5.666 3.591 2.717-7.028-3.624-3.283z"/><path fill="#ff5252" d="M336.55 398.134v137.044c0 3.42 2.769 6.352 6.352 6.352h219.78c3.581 0 6.35-2.932 6.35-6.352V398.134c0-3.581-2.769-6.35-6.35-6.35h-219.78c-3.583 0-6.352 2.769-6.352 6.35z"/><path fill="#fff" d="M396.796 443.402c0 4.077-3.3 7.375-7.373 7.375h-7.812v-8.252h15.185v.877zM381.611 431.487h15.186v8.419h-15.186zM396.796 416.951v.882h-15.185v-8.258h7.812a7.375 7.375 0 0 1 7.373 7.376zM358.394 409.575h20.599V450.777h-10.475V417.833h-17.5v-.882a7.377 7.377 0 0 1 7.376-7.376zM381.611 420.451h15.186v8.419h-15.186z"/><path fill="#fff" d="M351.018 420.451h14.881v8.419h-14.881zM351.018 431.487h14.881v8.419h-14.881zM365.9 450.777h-7.506a7.374 7.374 0 0 1-7.376-7.375v-.877H365.9v8.252zM359.82 490.075c-.646-.73-.999-1.686-1.058-2.87-.009-.265-.014-.719-.014-1.36 0-.65.005-1.114.014-1.39.05-1.163.405-2.11 1.065-2.84.661-.73 1.642-1.093 2.943-1.093 1.302 0 2.283.364 2.944 1.094.66.73 1.014 1.676 1.064 2.839.02.552.03 1.015.03 1.39s-.01.828-.03 1.36c-.06 1.184-.412 2.14-1.057 2.87-.646.73-1.63 1.095-2.951 1.095s-2.304-.365-2.95-1.095zm4.325-1.235c.307-.4.47-.968.488-1.708.01-.286.015-.725.015-1.316 0-.592-.005-1.02-.015-1.287-.019-.72-.181-1.282-.488-1.686-.305-.404-.764-.611-1.375-.62-.612.009-1.07.216-1.376.62-.305.404-.467.967-.488 1.686-.01.266-.013.695-.013 1.287 0 .591.003 1.03.013 1.316.02.74.183 1.309.488 1.708.307.4.764.6 1.376.6s1.07-.2 1.375-.6zM371.925 490.918a.342.342 0 0 1-.103-.251v-7.632l-2.232 1.716a.333.333 0 0 1-.222.074.323.323 0 0 1-.282-.148l-.636-.828a.353.353 0 0 1-.073-.207c0-.119.054-.217.162-.296l3.312-2.574a.68.68 0 0 1 .37-.103h1.33c.099 0 .184.035.253.103.068.07.103.154.103.252v9.643a.349.349 0 0 1-.103.251.347.347 0 0 1-.252.103h-1.376a.343.343 0 0 1-.25-.103zM377.287 490.075c-.647-.73-1-1.686-1.059-2.87-.008-.265-.014-.719-.014-1.36 0-.65.006-1.114.014-1.39.05-1.163.405-2.11 1.066-2.84.66-.73 1.64-1.093 2.942-1.093 1.302 0 2.283.364 2.944 1.094.66.73 1.015 1.676 1.064 2.839.02.552.03 1.015.03 1.39s-.01.828-.03 1.36c-.06 1.184-.412 2.14-1.057 2.87-.646.73-1.63 1.095-2.951 1.095-1.321 0-2.304-.365-2.95-1.095zm4.324-1.235c.307-.4.47-.968.488-1.708.01-.286.015-.725.015-1.316 0-.592-.005-1.02-.015-1.287-.018-.72-.181-1.282-.488-1.686-.305-.404-.764-.611-1.375-.62-.612.009-1.069.216-1.376.62-.305.404-.467.967-.487 1.686-.01.266-.014.695-.014 1.287 0 .591.003 1.03.014 1.316.02.74.182 1.309.487 1.708.307.4.764.6 1.376.6.611 0 1.07-.2 1.375-.6zM389.39 490.918a.342.342 0 0 1-.104-.251v-7.632l-2.232 1.716a.333.333 0 0 1-.222.074.323.323 0 0 1-.281-.148l-.637-.828a.353.353 0 0 1-.073-.207c0-.119.054-.217.163-.296l3.311-2.574a.68.68 0 0 1 .371-.103h1.33c.098 0 .183.035.252.103.068.07.104.154.104.252v9.643a.349.349 0 0 1-.104.251.347.347 0 0 1-.252.103h-1.375a.343.343 0 0 1-.251-.103zM411.641 490.075c-.647-.73-1-1.686-1.058-2.87-.009-.265-.014-.719-.014-1.36 0-.65.005-1.114.014-1.39.049-1.163.404-2.11 1.065-2.84.66-.73 1.641-1.093 2.942-1.093 1.303 0 2.284.364 2.944 1.094.661.73 1.015 1.676 1.064 2.839.02.552.03 1.015.03 1.39s-.01.828-.03 1.36c-.06 1.184-.411 2.14-1.057 2.87-.645.73-1.63 1.095-2.95 1.095s-2.304-.365-2.95-1.095zm4.325-1.235c.306-.4.47-.968.488-1.708.01-.286.015-.725.015-1.316 0-.592-.005-1.02-.015-1.287-.019-.72-.182-1.282-.488-1.686-.305-.404-.764-.611-1.376-.62-.611.009-1.068.216-1.375.62-.305.404-.468.967-.488 1.686-.01.266-.013.695-.013 1.287 0 .591.003 1.03.013 1.316.02.74.183 1.309.488 1.708.307.4.764.6 1.375.6s1.07-.2 1.376-.6zM423.746 490.918a.342.342 0 0 1-.103-.251v-7.632l-2.233 1.716a.333.333 0 0 1-.222.074.323.323 0 0 1-.281-.148l-.637-.828a.353.353 0 0 1-.073-.207c0-.119.054-.217.163-.296l3.312-2.574a.68.68 0 0 1 .37-.103h1.33c.098 0 .183.035.253.103.067.07.103.154.103.252v9.643a.349.349 0 0 1-.103.251.347.347 0 0 1-.253.103h-1.375a.343.343 0 0 1-.25-.103zM429.107 490.075c-.647-.73-1-1.686-1.058-2.87-.009-.265-.014-.719-.014-1.36 0-.65.005-1.114.014-1.39.049-1.163.404-2.11 1.065-2.84.66-.73 1.642-1.093 2.942-1.093 1.303 0 2.284.364 2.945 1.094.66.73 1.014 1.676 1.063 2.839.02.552.03 1.015.03 1.39s-.01.828-.03 1.36c-.059 1.184-.411 2.14-1.057 2.87-.645.73-1.63 1.095-2.95 1.095-1.322 0-2.304-.365-2.95-1.095zm4.325-1.235c.307-.4.47-.968.488-1.708.01-.286.015-.725.015-1.316 0-.592-.005-1.02-.015-1.287-.019-.72-.181-1.282-.488-1.686-.305-.404-.764-.611-1.376-.62-.611.009-1.068.216-1.375.62-.305.404-.468.967-.488 1.686-.01.266-.013.695-.013 1.287 0 .591.003 1.03.013 1.316.02.74.183 1.309.488 1.708.307.4.764.6 1.375.6.612 0 1.071-.2 1.376-.6zM441.21 490.918a.342.342 0 0 1-.103-.251v-7.632l-2.232 1.716a.333.333 0 0 1-.222.074.323.323 0 0 1-.282-.148l-.636-.828a.353.353 0 0 1-.073-.207c0-.119.054-.217.162-.296l3.312-2.574a.68.68 0 0 1 .37-.103h1.33c.099 0 .184.035.253.103.068.07.103.154.103.252v9.643a.349.349 0 0 1-.103.251.347.347 0 0 1-.252.103h-1.376a.343.343 0 0 1-.25-.103zM463.462 490.075c-.647-.73-1-1.686-1.059-2.87-.008-.265-.013-.719-.013-1.36 0-.65.005-1.114.013-1.39.05-1.163.405-2.11 1.066-2.84.66-.73 1.641-1.093 2.942-1.093 1.303 0 2.283.364 2.944 1.094.66.73 1.015 1.676 1.064 2.839.02.552.03 1.015.03 1.39s-.01.828-.03 1.36c-.06 1.184-.412 2.14-1.057 2.87-.646.73-1.63 1.095-2.951 1.095s-2.304-.365-2.95-1.095zm4.324-1.235c.307-.4.47-.968.488-1.708.01-.286.016-.725.016-1.316 0-.592-.006-1.02-.016-1.287-.018-.72-.18-1.282-.488-1.686-.304-.404-.763-.611-1.375-.62-.612.009-1.069.216-1.375.62-.305.404-.468.967-.488 1.686-.01.266-.014.695-.014 1.287 0 .591.004 1.03.014 1.316.02.74.183 1.309.488 1.708.306.4.763.6 1.375.6s1.07-.2 1.375-.6zM475.567 490.918a.342.342 0 0 1-.104-.251v-7.632l-2.232 1.716a.333.333 0 0 1-.222.074.323.323 0 0 1-.281-.148l-.637-.828a.353.353 0 0 1-.073-.207c0-.119.054-.217.163-.296l3.311-2.574a.68.68 0 0 1 .371-.103h1.33c.098 0 .183.035.252.103.068.07.104.154.104.252v9.643a.349.349 0 0 1-.104.251.347.347 0 0 1-.252.103h-1.376a.343.343 0 0 1-.25-.103zM480.928 490.075c-.647-.73-1-1.686-1.059-2.87-.008-.265-.013-.719-.013-1.36 0-.65.005-1.114.013-1.39.05-1.163.405-2.11 1.066-2.84.66-.73 1.641-1.093 2.942-1.093 1.303 0 2.283.364 2.944 1.094.66.73 1.015 1.676 1.064 2.839.02.552.03 1.015.03 1.39s-.01.828-.03 1.36c-.06 1.184-.412 2.14-1.057 2.87s-1.63 1.095-2.95 1.095c-1.322 0-2.305-.365-2.95-1.095zm4.325-1.235c.306-.4.469-.968.487-1.708.01-.286.016-.725.016-1.316 0-.592-.005-1.02-.016-1.287-.018-.72-.18-1.282-.487-1.686-.305-.404-.764-.611-1.376-.62-.611.009-1.069.216-1.375.62-.305.404-.468.967-.488 1.686-.01.266-.014.695-.014 1.287 0 .591.004 1.03.014 1.316.02.74.183 1.309.488 1.708.306.4.764.6 1.375.6s1.07-.2 1.376-.6zM493.031 490.918a.342.342 0 0 1-.103-.251v-7.632l-2.233 1.716a.333.333 0 0 1-.222.074.323.323 0 0 1-.281-.148l-.637-.828a.353.353 0 0 1-.073-.207c0-.119.054-.217.163-.296l3.312-2.574a.68.68 0 0 1 .37-.103h1.33c.098 0 .183.035.253.103.067.07.103.154.103.252v9.643a.349.349 0 0 1-.103.251.347.347 0 0 1-.253.103h-1.375a.343.343 0 0 1-.25-.103zM515.282 490.075c-.647-.73-.999-1.686-1.058-2.87-.009-.265-.014-.719-.014-1.36 0-.65.005-1.114.014-1.39.049-1.163.405-2.11 1.065-2.84.66-.73 1.642-1.093 2.943-1.093 1.302 0 2.283.364 2.944 1.094.66.73 1.014 1.676 1.063 2.839.02.552.031 1.015.031 1.39s-.01.828-.03 1.36c-.06 1.184-.412 2.14-1.058 2.87-.645.73-1.63 1.095-2.95 1.095-1.322 0-2.304-.365-2.95-1.095zm4.325-1.235c.307-.4.47-.968.488-1.708.01-.286.015-.725.015-1.316 0-.592-.005-1.02-.015-1.287-.019-.72-.181-1.282-.488-1.686-.305-.404-.764-.611-1.375-.62-.612.009-1.07.216-1.376.62-.305.404-.467.967-.488 1.686-.01.266-.013.695-.013 1.287 0 .591.003 1.03.013 1.316.02.74.183 1.309.488 1.708.307.4.764.6 1.376.6s1.07-.2 1.375-.6zM527.387 490.918a.342.342 0 0 1-.103-.251v-7.632l-2.233 1.716a.333.333 0 0 1-.222.074.323.323 0 0 1-.28-.148l-.638-.828a.353.353 0 0 1-.072-.207c0-.119.054-.217.162-.296l3.312-2.574a.68.68 0 0 1 .37-.103h1.33c.099 0 .183.035.253.103.068.07.103.154.103.252v9.643a.349.349 0 0 1-.103.251.347.347 0 0 1-.253.103h-1.375a.343.343 0 0 1-.25-.103zM532.749 490.075c-.647-.73-1-1.686-1.06-2.87-.008-.265-.013-.719-.013-1.36 0-.65.005-1.114.014-1.39.049-1.163.405-2.11 1.065-2.84.661-.73 1.642-1.093 2.943-1.093 1.302 0 2.283.364 2.944 1.094.66.73 1.014 1.676 1.064 2.839.02.552.03 1.015.03 1.39s-.01.828-.03 1.36c-.06 1.184-.412 2.14-1.058 2.87-.645.73-1.629 1.095-2.95 1.095-1.322 0-2.304-.365-2.95-1.095zm4.324-1.235c.307-.4.47-.968.488-1.708.01-.286.015-.725.015-1.316 0-.592-.005-1.02-.015-1.287-.019-.72-.181-1.282-.488-1.686-.305-.404-.764-.611-1.375-.62-.612.009-1.07.216-1.376.62-.305.404-.467.967-.488 1.686-.01.266-.013.695-.013 1.287 0 .591.003 1.03.013 1.316.02.74.183 1.309.488 1.708.307.4.764.6 1.376.6s1.07-.2 1.375-.6zM544.852 490.918a.342.342 0 0 1-.104-.251v-7.632l-2.232 1.716a.333.333 0 0 1-.222.074.323.323 0 0 1-.281-.148l-.637-.828a.353.353 0 0 1-.073-.207c0-.119.054-.217.163-.296l3.311-2.574a.68.68 0 0 1 .371-.103h1.33c.098 0 .183.035.252.103.068.07.104.154.104.252v9.643a.348.348 0 0 1-.104.251.347.347 0 0 1-.252.103h-1.376a.343.343 0 0 1-.25-.103zM559.066 413.71c0 1.134-.46 2.169-1.202 2.91a4.102 4.102 0 0 1-2.923 1.214h-43.565a4.128 4.128 0 0 1-4.125-4.125c0-1.146.461-2.18 1.203-2.922a4.101 4.101 0 0 1 2.922-1.213h43.565a4.13 4.13 0 0 1 4.125 4.135zM496.747 425.825h62.319v3.044h-62.319zM541.967 433.44h17.099v3.044h-17.099z"/><path fill="#ffc837" d="M516.884 592.877c0 6.41-2.6 12.21-6.8 16.42-4.21 4.19-10 6.79-16.41 6.79h-82.46c-12.82 0-23.21-10.39-23.21-23.21 0-6.41 2.6-12.21 6.79-16.42 4.21-4.19 10.01-6.79 16.42-6.79h82.46c12.81 0 23.21 10.39 23.21 23.21z"/><path d="M429.241 599.582c-.437.66-1.058 1.184-1.863 1.575-.805.391-1.737.617-2.794.679v1.633c0 .199-.066.364-.196.494a.7.7 0 0 1-.517.196.693.693 0 0 1-.495-.184c-.13-.123-.195-.292-.195-.506v-1.633c-1.656-.108-3.205-.468-4.646-1.081a1.043 1.043 0 0 1-.46-.38.965.965 0 0 1-.184-.563.97.97 0 0 1 .264-.679.88.88 0 0 1 .678-.287c.154 0 .3.03.438.092 1.242.552 2.545.859 3.91.92v-5.29c-1.043-.276-1.92-.576-2.634-.897a4.77 4.77 0 0 1-1.782-1.369c-.476-.59-.713-1.338-.713-2.243 0-.797.195-1.533.586-2.208.391-.674.974-1.234 1.748-1.679.774-.444 1.705-.713 2.795-.805v-1.61c0-.199.065-.368.195-.506a.65.65 0 0 1 .495-.207c.199 0 .368.07.506.207a.687.687 0 0 1 .207.506v1.587c1.502.062 2.837.315 4.002.76.43.153.644.46.644.92 0 .245-.085.467-.253.666a.83.83 0 0 1-.668.3c-.091 0-.214-.031-.367-.093a11.343 11.343 0 0 0-3.358-.62v5.473c1.104.261 2.02.545 2.748.852a4.637 4.637 0 0 1 1.83 1.368c.49.606.735 1.407.735 2.404 0 .813-.218 1.549-.656 2.208zm-8.326-8.12c.514.369 1.269.683 2.266.943v-5.06c-.92.123-1.656.403-2.208.84a2.082 2.082 0 0 0-.829 1.713c0 .675.257 1.196.771 1.564zm6.912 5.774c0-.598-.272-1.062-.816-1.392-.545-.33-1.354-.64-2.427-.931v4.945c2.162-.153 3.243-1.027 3.243-2.622zM436.639 601.355a.936.936 0 0 1-.276-.69c0-.276.092-.51.276-.702a.918.918 0 0 1 .69-.287h2.738V588.01l-2.346 1.15c-.215.093-.391.139-.53.139a.965.965 0 0 1-.713-.276c-.184-.184-.276-.422-.276-.714 0-.429.2-.743.599-.943l3.128-1.634c.215-.107.43-.16.645-.16h.483c.307 0 .568.107.782.322.214.215.322.475.322.782v13h2.278c.276 0 .51.096.702.287a.956.956 0 0 1 .287.702.918.918 0 0 1-.287.69.975.975 0 0 1-.702.277h-7.11a.937.937 0 0 1-.69-.277zM450.295 599.63c-1.067-1.488-1.6-3.497-1.6-6.029 0-2.53.533-4.54 1.6-6.028 1.066-1.487 2.61-2.232 4.636-2.232 2.01 0 3.55.745 4.624 2.232 1.074 1.488 1.611 3.498 1.611 6.028 0 2.532-.537 4.541-1.61 6.029-1.074 1.488-2.615 2.232-4.625 2.232-2.025 0-3.57-.744-4.636-2.232zm7.708-1.38c.713-1.12 1.07-2.67 1.07-4.649 0-1.963-.357-3.504-1.07-4.624-.713-1.12-1.738-1.68-3.072-1.68s-2.359.56-3.072 1.68c-.713 1.12-1.07 2.661-1.07 4.624 0 1.98.357 3.529 1.07 4.648.713 1.12 1.737 1.68 3.072 1.68s2.359-.56 3.072-1.68zM464.745 599.63c-1.068-1.488-1.6-3.497-1.6-6.029 0-2.53.532-4.54 1.6-6.028 1.065-1.487 2.61-2.232 4.635-2.232 2.01 0 3.551.745 4.625 2.232 1.073 1.488 1.61 3.498 1.61 6.028 0 2.532-.537 4.541-1.61 6.029-1.074 1.488-2.615 2.232-4.625 2.232-2.025 0-3.57-.744-4.635-2.232zm7.707-1.38c.713-1.12 1.07-2.67 1.07-4.649 0-1.963-.357-3.504-1.07-4.624-.713-1.12-1.737-1.68-3.072-1.68-1.334 0-2.358.56-3.072 1.68-.713 1.12-1.07 2.661-1.07 4.624 0 1.98.357 3.529 1.07 4.648.714 1.12 1.738 1.68 3.072 1.68 1.335 0 2.359-.56 3.072-1.68zM479.194 599.63c-1.067-1.488-1.6-3.497-1.6-6.029 0-2.53.533-4.54 1.6-6.028 1.065-1.487 2.61-2.232 4.636-2.232 2.01 0 3.55.745 4.624 2.232 1.074 1.488 1.61 3.498 1.61 6.028 0 2.532-.536 4.541-1.61 6.029-1.073 1.488-2.615 2.232-4.624 2.232-2.025 0-3.57-.744-4.636-2.232zm7.708-1.38c.713-1.12 1.07-2.67 1.07-4.649 0-1.963-.357-3.504-1.07-4.624-.714-1.12-1.738-1.68-3.072-1.68-1.335 0-2.359.56-3.072 1.68-.714 1.12-1.07 2.661-1.07 4.624 0 1.98.356 3.529 1.07 4.648.713 1.12 1.737 1.68 3.072 1.68 1.334 0 2.358-.56 3.072-1.68z" opacity=".15"/><path fill="#fff" d="M428.345 598.857c-.437.66-1.058 1.185-1.863 1.576-.805.39-1.736.617-2.794.678v1.633c0 .2-.066.364-.196.495a.7.7 0 0 1-.517.195.693.693 0 0 1-.495-.184c-.13-.123-.195-.291-.195-.506v-1.633c-1.656-.107-3.205-.467-4.646-1.08a1.043 1.043 0 0 1-.46-.38.965.965 0 0 1-.184-.564.97.97 0 0 1 .264-.678.88.88 0 0 1 .678-.288c.154 0 .3.031.438.092 1.242.552 2.545.859 3.91.92v-5.29c-1.043-.276-1.92-.575-2.633-.897a4.77 4.77 0 0 1-1.783-1.369c-.475-.59-.713-1.337-.713-2.242 0-.797.195-1.533.586-2.208.391-.675.974-1.234 1.748-1.68.774-.444 1.706-.712 2.795-.804v-1.61c0-.2.065-.368.195-.506a.65.65 0 0 1 .495-.207c.199 0 .368.069.506.207a.687.687 0 0 1 .207.506v1.587c1.502.061 2.837.314 4.002.759.43.153.644.46.644.92 0 .245-.085.468-.253.667a.83.83 0 0 1-.667.299c-.092 0-.215-.03-.368-.092a11.343 11.343 0 0 0-3.358-.621v5.474c1.104.26 2.02.544 2.748.85a4.636 4.636 0 0 1 1.83 1.37c.49.605.735 1.406.735 2.403 0 .813-.218 1.549-.656 2.208zm-8.326-8.12c.514.369 1.269.683 2.266.944v-5.06c-.92.123-1.656.402-2.208.84a2.082 2.082 0 0 0-.829 1.713c0 .675.258 1.196.771 1.564zm6.912 5.774c0-.598-.272-1.062-.816-1.391-.545-.33-1.354-.64-2.427-.932v4.945c2.162-.153 3.243-1.027 3.243-2.622zM435.743 600.63a.936.936 0 0 1-.276-.69c0-.275.092-.51.276-.701a.918.918 0 0 1 .69-.288h2.738v-11.665l-2.346 1.15c-.215.092-.391.138-.53.138-.291 0-.528-.092-.713-.276s-.276-.422-.276-.713c0-.43.2-.744.599-.944l3.128-1.633c.215-.107.43-.161.645-.161h.483c.307 0 .568.107.783.322.214.215.321.476.321.782v13h2.278c.276 0 .51.096.702.288a.956.956 0 0 1 .287.702c0 .276-.096.506-.287.69s-.426.276-.702.276h-7.11a.937.937 0 0 1-.69-.276zM449.4 598.905c-1.068-1.487-1.6-3.497-1.6-6.028 0-2.531.532-4.54 1.6-6.028 1.065-1.488 2.61-2.232 4.635-2.232 2.01 0 3.551.744 4.625 2.232 1.073 1.488 1.61 3.497 1.61 6.028 0 2.53-.537 4.54-1.61 6.028-1.074 1.488-2.615 2.232-4.625 2.232-2.025 0-3.57-.744-4.636-2.232zm7.707-1.38c.713-1.12 1.07-2.67 1.07-4.648 0-1.963-.357-3.505-1.07-4.625-.713-1.12-1.738-1.68-3.072-1.68s-2.359.56-3.072 1.68c-.713 1.12-1.07 2.662-1.07 4.625 0 1.979.357 3.528 1.07 4.648.713 1.12 1.738 1.68 3.072 1.68s2.359-.56 3.072-1.68zM463.849 598.905c-1.067-1.487-1.6-3.497-1.6-6.028 0-2.531.533-4.54 1.6-6.028 1.065-1.488 2.61-2.232 4.635-2.232 2.01 0 3.551.744 4.625 2.232 1.073 1.488 1.61 3.497 1.61 6.028 0 2.53-.537 4.54-1.61 6.028-1.074 1.488-2.615 2.232-4.625 2.232-2.025 0-3.57-.744-4.635-2.232zm7.707-1.38c.714-1.12 1.07-2.67 1.07-4.648 0-1.963-.356-3.505-1.07-4.625-.713-1.12-1.737-1.68-3.072-1.68-1.334 0-2.358.56-3.072 1.68-.713 1.12-1.069 2.662-1.069 4.625 0 1.979.356 3.528 1.07 4.648.713 1.12 1.737 1.68 3.071 1.68 1.335 0 2.36-.56 3.072-1.68zM478.298 598.905c-1.067-1.487-1.6-3.497-1.6-6.028 0-2.531.533-4.54 1.6-6.028 1.065-1.488 2.61-2.232 4.636-2.232 2.01 0 3.55.744 4.624 2.232 1.074 1.488 1.61 3.497 1.61 6.028 0 2.53-.536 4.54-1.61 6.028-1.073 1.488-2.615 2.232-4.624 2.232-2.025 0-3.57-.744-4.636-2.232zm7.708-1.38c.713-1.12 1.07-2.67 1.07-4.648 0-1.963-.357-3.505-1.07-4.625-.714-1.12-1.738-1.68-3.072-1.68-1.335 0-2.359.56-3.072 1.68-.713 1.12-1.07 2.662-1.07 4.625 0 1.979.357 3.528 1.07 4.648.713 1.12 1.737 1.68 3.072 1.68 1.334 0 2.358-.56 3.072-1.68z"/><path fill="#719bff" d="M516.211 666.757c0 6.02-2.44 11.46-6.38 15.41a21.704 21.704 0 0 1-15.4 6.38h-85.31c-12.03 0-21.79-9.76-21.79-21.79 0-6.02 2.44-11.46 6.38-15.4 3.95-3.94 9.4-6.38 15.41-6.38h85.31c12.03 0 21.78 9.75 21.78 21.78z"/><path fill="#fff" d="M418.593 661.195h-7.586a.865.865 0 0 0-.637.267.892.892 0 0 0-.252.638c0 .251.085.464.255.634.17.17.384.256.634.256h2.858v8.479c0 .26.091.484.271.664.18.18.403.271.664.271.259 0 .485-.09.67-.268a.896.896 0 0 0 .281-.667v-8.48h2.842a.89.89 0 0 0 .638-.252.85.85 0 0 0 .267-.637.879.879 0 0 0-.263-.642.877.877 0 0 0-.642-.263zM429.152 666.346a3.176 3.176 0 0 0 .553-1.808c0-.998-.378-1.816-1.127-2.433-.733-.604-1.832-.91-3.266-.91h-3.55a.895.895 0 0 0-.668.282.933.933 0 0 0-.267.668v9.324c0 .26.09.484.271.664a.967.967 0 0 0 1.333.003.896.896 0 0 0 .282-.667v-3.284h2.904c.628 0 1.097.147 1.392.438.313.307.504.645.587 1.031.087.41.13.866.13 1.358v.457c0 .27.09.497.265.672s.406.263.687.263a.919.919 0 0 0 .664-.271.906.906 0 0 0 .272-.664v-.701a6.26 6.26 0 0 0-.42-2.198c-.22-.585-.583-1.016-1.085-1.288.43-.235.78-.549 1.043-.936zm-1.333-1.702c0 .546-.216.957-.66 1.255-.467.315-1.12.475-1.939.475h-2.507v-3.37h2.43c1.008 0 1.719.149 2.115.44.377.278.56.67.56 1.2zM437.467 661.892a1.421 1.421 0 0 0-.416-.544 1.094 1.094 0 0 0-.696-.229h-.152c-.271 0-.504.077-.696.23-.179.141-.32.324-.418.547l-3.885 9.172a1.052 1.052 0 0 0-.095.4.92.92 0 0 0 .26.661c.297.31.816.37 1.2.12a.99.99 0 0 0 .361-.425l.927-2.223h4.845l.93 2.232a.988.988 0 0 0 .357.416.95.95 0 0 0 .525.155.9.9 0 0 0 .675-.275.92.92 0 0 0 .26-.66c0-.116-.03-.247-.095-.403l-3.887-9.174zm.493 5.945h-3.363l1.682-4.049 1.681 4.049zM451.5 661.401a.933.933 0 0 0-.268.668v7.427l-5.416-7.823c-.283-.367-.632-.554-1.036-.554h-.199c-.342 0-.638.125-.88.373-.239.245-.36.542-.36.882v9.095c0 .26.091.484.272.664a.967.967 0 0 0 1.333.003.896.896 0 0 0 .282-.667v-7.441l5.445 7.865a1.3 1.3 0 0 0 .432.367c.179.096.372.144.575.144h.183c.34 0 .637-.12.882-.36.249-.24.374-.536.374-.88v-9.095a.916.916 0 0 0-.28-.671.948.948 0 0 0-1.34.003zM461.528 666.483c-.501-.196-1.166-.395-1.978-.59a13.914 13.914 0 0 1-1.442-.396 2.227 2.227 0 0 1-.809-.478c-.19-.18-.281-.413-.281-.71 0-.458.207-.807.634-1.066.46-.28 1.076-.42 1.828-.42.81 0 1.608.133 2.36.393a.932.932 0 0 0 .336.078.8.8 0 0 0 .632-.285.91.91 0 0 0 .228-.604c0-.408-.21-.708-.59-.844-.928-.344-1.978-.518-3.118-.518-.866 0-1.622.148-2.248.442-.633.299-1.122.708-1.45 1.218a3.104 3.104 0 0 0-.498 1.712c0 .722.207 1.312.614 1.754.391.423.864.744 1.404.955.513.2 1.194.411 2.022.626.609.16 1.084.299 1.414.413.302.105.558.25.761.43a.732.732 0 0 1 .259.575c0 .372 0 1.502-2.415 1.502a7.076 7.076 0 0 1-2.9-.603c-.351-.156-.774-.084-1.024.189a.885.885 0 0 0-.241.618c0 .185.055.358.166.516a.941.941 0 0 0 .41.339 9.334 9.334 0 0 0 3.726.751c.801 0 1.522-.135 2.14-.401.628-.27 1.124-.655 1.475-1.143a2.812 2.812 0 0 0 .534-1.676c0-.75-.197-1.358-.586-1.809a3.442 3.442 0 0 0-1.363-.968zM472.123 661.195h-5.925a.895.895 0 0 0-.668.282.933.933 0 0 0-.268.668v9.324c0 .26.092.484.272.664.18.18.403.271.664.271a.947.947 0 0 0 .669-.268.896.896 0 0 0 .282-.667v-3.818h4.441a.89.89 0 0 0 .905-.89.879.879 0 0 0-.263-.64.877.877 0 0 0-.642-.265h-4.441v-2.866h4.974a.89.89 0 0 0 .638-.253.85.85 0 0 0 .268-.637.879.879 0 0 0-.264-.642.877.877 0 0 0-.642-.263zM481.72 662.99a.89.89 0 0 0 .638-.253.85.85 0 0 0 .267-.637.879.879 0 0 0-.263-.642.877.877 0 0 0-.642-.263h-6.108a.895.895 0 0 0-.668.282.934.934 0 0 0-.268.668v9.248c0 .26.092.483.272.664.18.18.403.271.664.271h6.108a.89.89 0 0 0 .905-.89.878.878 0 0 0-.263-.641.877.877 0 0 0-.642-.264h-5.157v-2.882h4.61a.889.889 0 0 0 .904-.89.879.879 0 0 0-.264-.64.876.876 0 0 0-.64-.265h-4.61v-2.866h5.157zM491.828 667.282c.431-.235.78-.549 1.043-.936a3.176 3.176 0 0 0 .554-1.808c0-.998-.379-1.816-1.127-2.433-.733-.604-1.832-.91-3.266-.91h-3.55a.895.895 0 0 0-.668.282.933.933 0 0 0-.268.668v9.324c0 .26.091.484.272.664a.967.967 0 0 0 1.333.003.896.896 0 0 0 .282-.667v-3.284h2.903c.63 0 1.098.147 1.393.438.312.307.504.645.587 1.031.087.41.13.866.13 1.358v.457c0 .27.09.497.264.672s.407.263.688.263a.919.919 0 0 0 .664-.271.906.906 0 0 0 .271-.664v-.701a6.26 6.26 0 0 0-.419-2.198c-.22-.585-.584-1.016-1.086-1.288zm-.29-2.638c0 .546-.215.957-.659 1.255-.468.315-1.12.475-1.94.475h-2.506v-3.37h2.43c1.007 0 1.718.149 2.115.44.377.278.56.67.56 1.2z"/><path fill="#9bb2e1" d="M903.415 274.942v433.01c0 13.46-10.952 24.422-24.412 24.422H643.488c-13.45 0-24.39-10.963-24.39-24.423v-433.01c0-13.47 10.94-24.39 24.39-24.39h235.515c13.46 0 24.412 10.92 24.412 24.39z"/><path fill="#fff" d="M643.494 723.423c-8.524 0-15.458-6.942-15.458-15.475V274.95c0-8.532 6.934-15.474 15.458-15.474h235.51c8.531 0 15.473 6.942 15.473 15.474v432.998c0 8.533-6.942 15.475-15.473 15.475h-235.51z"/><circle cx="729.383" cy="269.614" r="3.38" fill="#9bb2e1"/><path fill="#9bb2e1" d="M796.51 269.707c0 .99-.81 1.78-1.8 1.78h-55.74c-.99 0-1.8-.79-1.8-1.78s.81-1.8 1.8-1.8h55.74c.99 0 1.8.81 1.8 1.8z"/><path fill="#fff" d="M704.719 437.546c0 4.077-3.3 7.376-7.373 7.376h-7.813v-8.253h15.186v.877zM689.533 425.632h15.186v8.419h-15.186zM704.719 411.096v.882h-15.186v-8.258h7.813a7.375 7.375 0 0 1 7.373 7.376zM666.317 403.72h20.598V444.922H676.44V411.978h-17.499v-.882a7.377 7.377 0 0 1 7.376-7.376zM689.533 414.595h15.186v8.419h-15.186z"/><path fill="#fff" d="M658.941 414.595h14.881v8.419h-14.881zM658.941 425.632h14.881v8.419h-14.881zM673.822 444.922h-7.505a7.374 7.374 0 0 1-7.376-7.376v-.877h14.881v8.253zM667.743 484.22c-.647-.73-1-1.686-1.058-2.87-.009-.265-.014-.72-.014-1.36 0-.651.005-1.114.014-1.39.049-1.163.404-2.11 1.065-2.84.66-.73 1.641-1.094 2.942-1.094 1.303 0 2.284.364 2.944 1.095.661.729 1.015 1.676 1.064 2.839.02.552.03 1.015.03 1.39s-.01.828-.03 1.36c-.06 1.184-.411 2.14-1.057 2.87-.645.73-1.63 1.094-2.95 1.094-1.322 0-2.304-.365-2.95-1.095zm4.325-1.236c.306-.399.469-.968.488-1.707.01-.286.015-.725.015-1.316 0-.592-.005-1.021-.015-1.287-.019-.72-.182-1.282-.488-1.686-.305-.404-.764-.612-1.376-.621-.611.01-1.068.217-1.375.62-.305.405-.468.967-.488 1.687-.01.266-.014.695-.014 1.287 0 .59.004 1.03.014 1.316.02.74.183 1.308.488 1.707.307.4.764.6 1.375.6s1.07-.2 1.376-.6zM679.848 485.063a.342.342 0 0 1-.103-.252v-7.631l-2.233 1.715a.333.333 0 0 1-.222.075.323.323 0 0 1-.281-.149l-.637-.828a.353.353 0 0 1-.073-.207c0-.118.055-.216.163-.295l3.312-2.574a.68.68 0 0 1 .37-.103h1.33c.099 0 .183.034.253.103.067.07.103.153.103.251v9.643a.349.349 0 0 1-.103.252.347.347 0 0 1-.253.103H680.1a.343.343 0 0 1-.25-.103zM685.21 484.22c-.648-.73-1-1.686-1.06-2.87-.008-.265-.013-.72-.013-1.36 0-.651.005-1.114.014-1.39.049-1.163.404-2.11 1.065-2.84.66-.73 1.642-1.094 2.942-1.094 1.303 0 2.284.364 2.945 1.095.66.729 1.014 1.676 1.063 2.839.02.552.03 1.015.03 1.39s-.01.828-.03 1.36c-.059 1.184-.411 2.14-1.057 2.87-.645.73-1.63 1.094-2.95 1.094-1.322 0-2.304-.365-2.95-1.095zm4.324-1.236c.307-.399.47-.968.488-1.707.01-.286.015-.725.015-1.316 0-.592-.005-1.021-.015-1.287-.019-.72-.181-1.282-.488-1.686-.305-.404-.764-.612-1.376-.621-.611.01-1.068.217-1.375.62-.305.405-.468.967-.488 1.687-.01.266-.013.695-.013 1.287 0 .59.003 1.03.013 1.316.02.74.183 1.308.488 1.707.307.4.764.6 1.375.6s1.071-.2 1.376-.6zM697.312 485.063a.342.342 0 0 1-.103-.252v-7.631l-2.232 1.715a.333.333 0 0 1-.222.075.323.323 0 0 1-.282-.149l-.637-.828a.353.353 0 0 1-.072-.207c0-.118.054-.216.162-.295l3.312-2.574a.68.68 0 0 1 .37-.103h1.33c.099 0 .184.034.253.103.068.07.103.153.103.251v9.643a.349.349 0 0 1-.103.252.347.347 0 0 1-.252.103h-1.376a.343.343 0 0 1-.25-.103z"/><path fill="#e4f0fd" d="M876.394 565.966v22.805c0 2.07-1.68 3.75-3.75 3.75h-217.67c-2.08 0-3.75-1.68-3.75-3.75v-22.805c0-2.08 1.67-3.75 3.75-3.75h217.67c2.07 0 3.75 1.67 3.75 3.75z"/><path fill="#ff784b" d="M667.662 568.474v17.79c0 .51-.41.91-.92.91h-7.16c-.51 0-.92-.4-.92-.91v-17.79c0-.5.41-.91.92-.91h7.16c.51 0 .92.41.92.91zM682.04 568.474v17.79c0 .51-.41.91-.92.91h-7.16c-.51 0-.92-.4-.92-.91v-17.79c0-.5.41-.91.92-.91h7.16c.51 0 .92.41.92.91zM696.418 568.474v17.79c0 .51-.41.91-.92.91h-7.16c-.51 0-.92-.4-.92-.91v-17.79c0-.5.41-.91.92-.91h7.16c.51 0 .92.41.92.91zM710.797 568.474v17.79c0 .51-.41.91-.92.91h-7.16c-.51 0-.92-.4-.92-.91v-17.79c0-.5.41-.91.92-.91h7.16c.51 0 .92.41.92.91zM725.175 568.474v17.79c0 .51-.41.91-.92.91h-7.16c-.51 0-.92-.4-.92-.91v-17.79c0-.5.41-.91.92-.91h7.16c.51 0 .92.41.92.91zM739.553 568.474v17.79c0 .51-.41.91-.92.91h-7.16c-.51 0-.92-.4-.92-.91v-17.79c0-.5.41-.91.92-.91h7.16c.51 0 .92.41.92.91zM753.931 568.474v17.79c0 .51-.41.91-.92.91h-7.16c-.51 0-.92-.4-.92-.91v-17.79c0-.5.41-.91.92-.91h7.16c.51 0 .92.41.92.91zM768.31 568.474v17.79c0 .51-.41.91-.92.91h-7.16c-.51 0-.92-.4-.92-.91v-17.79c0-.5.41-.91.92-.91h7.16c.51 0 .92.41.92.91zM782.688 568.474v17.79c0 .51-.41.91-.92.91h-7.16c-.51 0-.92-.4-.92-.91v-17.79c0-.5.41-.91.92-.91h7.16c.51 0 .92.41.92.91zM797.066 568.474v17.79c0 .51-.41.91-.92.91h-7.16c-.51 0-.92-.4-.92-.91v-17.79c0-.5.41-.91.92-.91h7.16c.51 0 .92.41.92.91zM811.444 568.474v17.79c0 .51-.41.91-.92.91h-7.16c-.51 0-.92-.4-.92-.91v-17.79c0-.5.41-.91.92-.91h7.16c.51 0 .92.41.92.91z"/><path fill="#c2d1f2" d="M825.822 568.474v17.79c0 .51-.41.91-.92.91h-7.16c-.51 0-.92-.4-.92-.91v-17.79c0-.5.41-.91.92-.91h7.16c.51 0 .92.41.92.91zM840.2 568.474v17.79c0 .51-.41.91-.92.91h-7.16c-.51 0-.92-.4-.92-.91v-17.79c0-.5.41-.91.92-.91h7.16c.51 0 .92.41.92.91zM854.579 568.474v17.79c0 .51-.41.91-.92.91h-7.16c-.51 0-.92-.4-.92-.91v-17.79c0-.5.41-.91.92-.91h7.16c.51 0 .92.41.92.91zM868.957 568.474v17.79c0 .51-.41.91-.92.91h-7.16c-.51 0-.92-.4-.92-.91v-17.79c0-.5.41-.91.92-.91h7.16c.51 0 .92.41.92.91z"/><path d="m472.435 347.093-.846-.532a157.99 157.99 0 0 1 3.301-5.031l.826.564a158.143 158.143 0 0 0-3.281 5zM745.722 364.952a155.806 155.806 0 0 0-5.303-10.475l.875-.485c1.9 3.424 3.695 6.971 5.336 10.542l-.908.418zm-11.379-20.519a157.456 157.456 0 0 0-6.816-9.558l.79-.61a158.325 158.325 0 0 1 6.862 9.619l-.836.55zm-251.64-11.771-.78-.625a158.53 158.53 0 0 1 7.725-8.941l.732.681a157.34 157.34 0 0 0-7.676 8.885zm237.308-6.807a156.597 156.597 0 0 0-8.17-8.431l.692-.722a158.204 158.204 0 0 1 8.222 8.485l-.744.668zm-221.31-10.36-.678-.735a158.134 158.134 0 0 1 8.974-7.685l.622.783a157.413 157.413 0 0 0-8.918 7.636zm204.36-5.867a157.336 157.336 0 0 0-9.34-7.114l.576-.818a158.059 158.059 0 0 1 9.4 7.16l-.635.772zm-185.979-8.714-.56-.828a156.654 156.654 0 0 1 10.024-6.252l.496.868a155.952 155.952 0 0 0-9.96 6.212zm166.792-4.793a156.154 156.154 0 0 0-10.301-5.631l.445-.895c3.51 1.75 6.999 3.656 10.368 5.667l-.512.86zm-146.434-6.86-.43-.904a156.01 156.01 0 0 1 10.85-4.668l.36.932a155.274 155.274 0 0 0-10.78 4.64zm125.434-3.607a155.182 155.182 0 0 0-11.034-4.01l.305-.952a156.02 156.02 0 0 1 11.106 4.036l-.377.926zm-103.554-4.84-.29-.957c3.756-1.13 7.6-2.13 11.43-2.972l.214.977c-3.804.836-7.625 1.83-11.354 2.953zm81.212-2.329a155.413 155.413 0 0 0-11.513-2.292l.158-.987a156.41 156.41 0 0 1 11.587 2.307l-.232.972zm-58.306-2.708-.14-.99c3.876-.55 7.83-.958 11.751-1.215l.067.997a156.91 156.91 0 0 0-11.678 1.208zm35.142-1a158.4 158.4 0 0 0-11.727-.54l.009-1c3.928.035 7.9.218 11.802.543l-.084.997zM752.215 381.548a156.92 156.92 0 0 0-1.964-5.65l.938-.346c.693 1.878 1.358 3.79 1.977 5.686l-.95.31z"/><path fill="#5388f2" d="M857.415 386.561v127.846a8.298 8.298 0 0 1-8.306 8.306H669.636c-5.45 0-9.874-4.424-9.874-9.875v-134.47a4.787 4.787 0 0 1 4.784-4.784h179.891c7.166 0 12.978 5.812 12.978 12.977z"/><path fill="#fff" d="m724.837 366.526 2.607 2.08c-.5.343-.942.57-1.317.676-.396.112-.758.031-1.107-.247a1.387 1.387 0 0 1-.552-1.152c.002-.422.126-.877.369-1.357z"/><path fill="#ffa903" d="M711.476 388.373a4.829 4.829 0 0 1 .776 6.794 4.829 4.829 0 0 1-6.797.75 4.825 4.825 0 0 1-.762-6.782 4.825 4.825 0 0 1 6.783-.762z"/><path fill="#f9b723" d="M841.71 397.579c0 17.744-14.387 32.13-32.131 32.13-17.739 0-32.125-14.386-32.125-32.13 0-17.739 14.386-32.125 32.125-32.125 17.744 0 32.13 14.386 32.13 32.125z"/><path fill="#ffc837" d="M838.546 397.58c0 15.996-12.97 28.966-28.967 28.966-15.992 0-28.961-12.97-28.961-28.967 0-15.992 12.97-28.961 28.961-28.961 15.997 0 28.967 12.97 28.967 28.961z"/><path fill="#e8a215" d="M817.455 406.386c-.644.971-1.558 1.744-2.744 2.32-1.184.575-2.556.908-4.114.998v2.405a.99.99 0 0 1-.287.728c-.192.191-.447.288-.763.288-.293 0-.535-.09-.728-.271-.192-.181-.287-.43-.287-.745v-2.405c-2.438-.158-4.72-.688-6.84-1.59-.271-.114-.498-.3-.678-.56a1.427 1.427 0 0 1-.27-.83c0-.383.13-.716.389-.998.26-.282.592-.424 1-.424.224 0 .439.046.642.136a15.785 15.785 0 0 0 5.757 1.355v-7.79c-1.536-.406-2.827-.846-3.877-1.32a7.019 7.019 0 0 1-2.625-2.015c-.7-.868-1.05-1.969-1.05-3.301 0-1.174.288-2.258.864-3.251.575-.993 1.433-1.817 2.573-2.472s2.512-1.05 4.115-1.186v-2.37c0-.293.095-.541.287-.745.193-.203.435-.304.728-.304s.542.101.745.304c.204.204.305.452.305.745v2.337c2.213.09 4.177.463 5.892 1.117.632.226.95.677.95 1.355 0 .361-.126.689-.373.982-.249.293-.577.44-.983.44-.135 0-.316-.045-.542-.136-1.535-.541-3.183-.846-4.944-.914v8.06c1.626.384 2.975.802 4.047 1.253a6.82 6.82 0 0 1 2.692 2.015c.722.892 1.084 2.071 1.084 3.538 0 1.197-.322 2.28-.965 3.251zm-12.258-11.954c.755.542 1.867 1.005 3.335 1.389v-7.45c-1.355.181-2.438.593-3.251 1.236-.812.643-1.22 1.484-1.22 2.523 0 .993.379 1.76 1.136 2.302zm10.175 8.5c0-.88-.401-1.563-1.202-2.049-.802-.485-1.993-.942-3.573-1.371v7.28c3.184-.225 4.775-1.512 4.775-3.86z"/><path fill="#f9b723" d="M776.65 370.156c0 20.862-16.914 37.776-37.776 37.776-20.855 0-37.77-16.914-37.77-37.776 0-20.856 16.915-37.77 37.77-37.77 20.862 0 37.776 16.914 37.776 37.77z"/><path fill="#ffc837" d="M772.93 370.156c0 18.808-15.248 34.056-34.055 34.056-18.802 0-34.05-15.248-34.05-34.056 0-18.802 15.248-34.05 34.05-34.05 18.807 0 34.056 15.248 34.056 34.05z"/><path fill="#e8a215" d="M748.134 380.51c-.757 1.142-1.831 2.05-3.225 2.727-1.393.678-3.006 1.069-4.837 1.175v2.827c0 .344-.113.63-.338.856-.226.225-.525.338-.897.338-.344 0-.63-.106-.855-.318-.226-.213-.338-.505-.338-.876v-2.827c-2.867-.186-5.549-.81-8.043-1.871a1.807 1.807 0 0 1-.796-.657 1.677 1.677 0 0 1-.318-.976c0-.45.152-.842.457-1.174.305-.332.697-.498 1.175-.498.264 0 .517.054.756.16a18.558 18.558 0 0 0 6.769 1.592v-9.157c-1.806-.478-3.325-.996-4.559-1.553a8.252 8.252 0 0 1-3.086-2.369c-.823-1.021-1.234-2.315-1.234-3.881 0-1.38.339-2.654 1.015-3.822.677-1.168 1.685-2.136 3.026-2.907 1.34-.77 2.953-1.234 4.838-1.393v-2.787c0-.345.112-.637.338-.876.225-.239.51-.358.855-.358s.637.12.876.358c.24.24.359.531.359.876v2.747c2.601.106 4.91.544 6.927 1.314.743.265 1.116.796 1.116 1.592 0 .425-.147.81-.438 1.155-.293.345-.678.518-1.155.518-.16 0-.372-.053-.637-.16-1.805-.637-3.743-.995-5.813-1.075v9.476c1.91.452 3.496.943 4.758 1.473a8.018 8.018 0 0 1 3.165 2.369c.848 1.049 1.273 2.435 1.273 4.16 0 1.407-.378 2.682-1.134 3.822zm-14.412-14.054c.888.638 2.196 1.181 3.922 1.633v-8.76c-1.593.214-2.867.697-3.823 1.454-.955.756-1.433 1.745-1.433 2.966 0 1.168.444 2.07 1.334 2.707zm11.963 9.993c0-1.035-.471-1.837-1.413-2.408-.942-.571-2.343-1.108-4.2-1.613v8.56c3.742-.265 5.613-1.778 5.613-4.539z"/><path fill="#719bff" d="M851.636 392.913V512.95a9.758 9.758 0 0 1-9.762 9.761H669.522a9.758 9.758 0 0 1-9.762-9.761V378.367a4.775 4.775 0 0 0 4.785 4.785h177.33a9.757 9.757 0 0 1 9.76 9.761z"/><path fill="#2e1c66" d="M835.733 516.505h-6.8a.564.564 0 1 1 0-1.129h6.8a.564.564 0 1 1 0 1.129zm-13.602 0h-6.802a.564.564 0 1 1 0-1.129h6.802a.564.564 0 1 1 0 1.129zm-13.603 0h-6.801a.564.564 0 1 1 0-1.129h6.801a.564.564 0 1 1 0 1.129zm-13.603 0h-6.801a.564.564 0 1 1 0-1.129h6.801a.564.564 0 1 1 0 1.129zm-13.602 0h-6.802a.564.564 0 1 1 0-1.129h6.802a.564.564 0 1 1 0 1.129zm-13.603 0h-6.801a.564.564 0 1 1 0-1.129h6.8a.564.564 0 1 1 0 1.129zm-13.603 0h-6.801a.564.564 0 1 1 0-1.129h6.801a.564.564 0 1 1 0 1.129zm-13.602 0h-6.802a.564.564 0 1 1 0-1.129h6.802a.564.564 0 1 1 0 1.129zm-13.603 0h-6.802a.564.564 0 1 1 0-1.129h6.802a.564.564 0 1 1 0 1.129zm-13.603 0h-6.8a.564.564 0 1 1 0-1.129h6.8a.564.564 0 1 1 0 1.129zm-13.603 0h-6.8a.564.564 0 1 1 0-1.129h6.8a.564.564 0 1 1 0 1.129zm-13.602 0h-6.802a.564.564 0 1 1 0-1.129h6.802a.564.564 0 1 1 0 1.129zm-13.603 0h-.07a6.475 6.475 0 0 1-5.908-3.837.564.564 0 1 1 1.03-.46 5.346 5.346 0 0 0 4.878 3.168c.312 0 .599.252.599.564s-.217.565-.529.565zm169.82-1.047a.564.564 0 0 1-.323-1.028 5.34 5.34 0 0 0 2.303-4.39v-1.1a.564.564 0 1 1 1.128 0v1.1a6.47 6.47 0 0 1-2.788 5.318.563.563 0 0 1-.32.1zm-175.79-9.184a.564.564 0 0 1-.565-.564v-6.802a.564.564 0 1 1 1.129 0v6.802a.564.564 0 0 1-.564.564zm178.334-3.57a.564.564 0 0 1-.564-.565v-6.801a.564.564 0 1 1 1.128 0v6.801a.564.564 0 0 1-.564.564zM666.53 492.67a.564.564 0 0 1-.565-.564v-6.801a.564.564 0 1 1 1.129 0v6.8a.564.564 0 0 1-.564.565zm178.334-3.57a.564.564 0 0 1-.564-.565v-6.801a.564.564 0 1 1 1.128 0v6.801a.564.564 0 0 1-.564.564zM666.53 479.068a.564.564 0 0 1-.565-.565v-6.801a.564.564 0 1 1 1.129 0v6.801a.564.564 0 0 1-.564.565zm178.334-3.571a.564.564 0 0 1-.564-.564v-6.801a.564.564 0 1 1 1.128 0v6.8a.564.564 0 0 1-.564.565zM666.53 465.466a.564.564 0 0 1-.565-.565v-6.8a.564.564 0 1 1 1.129 0v6.8a.564.564 0 0 1-.564.565zm178.334-3.57a.564.564 0 0 1-.564-.565v-6.801a.564.564 0 1 1 1.128 0v6.8a.564.564 0 0 1-.564.565zM666.53 451.862a.564.564 0 0 1-.565-.564v-6.802a.564.564 0 1 1 1.129 0v6.802a.564.564 0 0 1-.564.564zm178.334-3.57a.564.564 0 0 1-.564-.565v-6.801a.564.564 0 1 1 1.128 0v6.801a.564.564 0 0 1-.564.565zM666.53 438.26a.564.564 0 0 1-.565-.564v-6.801a.564.564 0 1 1 1.129 0v6.801a.564.564 0 0 1-.564.564zm178.334-3.57a.564.564 0 0 1-.564-.564v-6.802a.564.564 0 1 1 1.128 0v6.802a.564.564 0 0 1-.564.564zM666.53 424.657a.564.564 0 0 1-.565-.564v-6.801a.564.564 0 1 1 1.129 0v6.801a.564.564 0 0 1-.564.564zm178.334-3.57a.564.564 0 0 1-.564-.564v-6.802a.564.564 0 1 1 1.128 0v6.802a.564.564 0 0 1-.564.564zM666.53 411.055a.564.564 0 0 1-.565-.564v-6.802a.564.564 0 1 1 1.129 0v6.802a.564.564 0 0 1-.564.564zm178.334-3.57a.564.564 0 0 1-.564-.565v-6.801a.564.564 0 1 1 1.128 0v6.801a.564.564 0 0 1-.564.564zM666.53 397.451a.564.564 0 0 1-.565-.564v-1.065a6.468 6.468 0 0 1 2.82-5.34.564.564 0 0 1 .637.932 5.34 5.34 0 0 0-2.328 4.408v1.065a.564.564 0 0 1-.564.564zm177.812-3.495a.565.565 0 0 1-.515-.332 5.35 5.35 0 0 0-4.863-3.138.58.58 0 0 1-.582-.564.55.55 0 0 1 .547-.564h.035a6.48 6.48 0 0 1 5.892 3.801.564.564 0 0 1-.514.797zm-12.215-3.47h-6.801a.564.564 0 1 1 0-1.128h6.801a.564.564 0 1 1 0 1.128zm-13.602 0h-6.802a.564.564 0 1 1 0-1.128h6.802a.564.564 0 1 1 0 1.128zm-13.603 0h-6.801a.564.564 0 1 1 0-1.128h6.8a.564.564 0 1 1 0 1.128zm-13.603 0h-6.801a.564.564 0 1 1 0-1.128h6.8a.564.564 0 1 1 0 1.128zm-13.603 0h-6.8a.564.564 0 1 1 0-1.128h6.8a.564.564 0 1 1 0 1.128zm-13.602 0h-6.802a.564.564 0 1 1 0-1.128h6.802a.564.564 0 1 1 0 1.128zm-13.603 0h-6.802a.564.564 0 1 1 0-1.128h6.802a.564.564 0 1 1 0 1.128zm-13.603 0h-6.801a.564.564 0 1 1 0-1.128h6.801a.564.564 0 1 1 0 1.128zm-13.602 0h-6.802a.564.564 0 1 1 0-1.128h6.802a.564.564 0 1 1 0 1.128zm-13.603 0h-6.801a.564.564 0 1 1 0-1.128h6.8a.564.564 0 1 1 0 1.128zm-13.603 0H689.3a.564.564 0 1 1 0-1.128h6.801a.564.564 0 1 1 0 1.128zm-13.602 0h-6.802a.564.564 0 1 1 0-1.128h6.802a.564.564 0 1 1 0 1.128z"/><path d="M857.415 436.068v35.795a5.922 5.922 0 0 1-2.686.632h-51.086a6.085 6.085 0 0 1-6.083-6.082v-24.894a6.085 6.085 0 0 1 6.083-6.083h51.086c.97 0 1.885.226 2.686.632z" opacity=".1"/><path fill="#0a48d8" d="M862.752 438.088v24.894a6.078 6.078 0 0 1-6.082 6.083h-51.086a6.085 6.085 0 0 1-6.083-6.083v-24.894a6.066 6.066 0 0 1 4.695-5.913c.44-.113.914-.17 1.388-.17h51.086a6.078 6.078 0 0 1 6.082 6.083z"/><path d="M862.749 438.094v24.892a6.069 6.069 0 0 1-6.073 6.073h-51.097a6.06 6.06 0 0 1-5.975-5.012 6.09 6.09 0 0 0 1.759.265h51.083a6.071 6.071 0 0 0 6.087-6.072v-24.893c0-.363-.028-.726-.098-1.075a6.074 6.074 0 0 1 4.314 5.822z" opacity=".1"/><circle cx="813.98" cy="450.539" r="4.75" fill="#373352"/><path d="M535.24 374.159H371.427a5.393 5.393 0 0 1-5.393-5.393v-10.394a5.393 5.393 0 0 1 5.393-5.393H535.24a5.393 5.393 0 0 1 5.393 5.393v10.394a5.393 5.393 0 0 1-5.393 5.393z"/><path fill="#3d3d3d" d="M536.63 358.375v10.39c0 .77-.62 1.39-1.39 1.39H371.43c-.77 0-1.4-.62-1.4-1.39v-10.39c0-.77.63-1.4 1.4-1.4h163.81c.77 0 1.39.63 1.39 1.4z"/><path fill="#f9b723" d="M493.44 336.905c0 7.28-1.89 14.13-5.2 20.07a41.5 41.5 0 0 1-11.61 13.18h-48.94a41.5 41.5 0 0 1-11.61-13.18 41.124 41.124 0 0 1-5.2-20.07c0-22.79 18.49-41.27 41.28-41.27 22.79 0 41.28 18.48 41.28 41.27z"/><path fill="#ffc837" d="M489.37 336.905c0 7.39-2.16 14.28-5.87 20.07a37.395 37.395 0 0 1-14.6 13.18h-33.48a37.395 37.395 0 0 1-14.6-13.18 37.088 37.088 0 0 1-5.87-20.07c0-20.55 16.66-37.21 37.21-37.21s37.21 16.66 37.21 37.21z"/><path fill="#e8a215" d="M462.12 339.496a8.807 8.807 0 0 0-3.46-2.59c-1.37-.58-3.11-1.11-5.2-1.61v-10.35c2.27.09 4.38.48 6.36 1.17.29.12.52.18.69.18.52 0 .95-.19 1.26-.57.32-.37.48-.791.48-1.26 0-.87-.4-1.45-1.22-1.74-2.2-.84-4.72-1.32-7.57-1.44v-3c0-.37-.13-.69-.39-.95-.26-.27-.58-.401-.95-.401-.38 0-.69.13-.94.4-.25.26-.37.58-.37.95v3.05c-2.06.17-3.82.68-5.29 1.52-1.46.84-2.56 1.9-3.3 3.18a8.163 8.163 0 0 0-1.11 4.17c0 1.72.45 3.13 1.35 4.25.9 1.11 2.02 1.97 3.37 2.58 1.35.61 3.01 1.18 4.98 1.7v10.01c-2.58-.12-5.05-.7-7.4-1.74-.26-.12-.53-.18-.82-.18-.52 0-.95.18-1.29.55-.33.36-.5.79-.5 1.28 0 .38.12.73.35 1.07.23.33.53.57.87.71 2.73 1.16 5.66 1.85 8.79 2.05v3.09c0 .4.12.72.37.95.25.24.56.35.94.35.4 0 .73-.12.98-.37.24-.24.36-.56.36-.93v-3.09c2.01-.12 3.77-.55 5.29-1.29 1.52-.73 2.7-1.73 3.52-2.98.83-1.24 1.24-2.63 1.24-4.17 0-1.89-.46-3.4-1.39-4.55zm-11.31-4.85c-1.88-.49-3.31-1.09-4.28-1.78-.98-.7-1.46-1.681-1.46-2.96 0-1.33.52-2.42 1.56-3.24 1.05-.83 2.44-1.36 4.18-1.59v9.57zm2.65 14.1v-9.36c2.03.549 3.56 1.14 4.59 1.77 1.03.62 1.55 1.5 1.55 2.63 0 3.01-2.05 4.67-6.14 4.96z"/><path fill="#f9b723" d="M651.224 269.694c0 21.674-17.572 39.247-39.247 39.247-21.668 0-39.24-17.573-39.24-39.247 0-21.668 17.572-39.241 39.24-39.241 21.675 0 39.247 17.573 39.247 39.24z"/><path fill="#ffc837" d="M647.36 269.694c0 19.54-15.842 35.382-35.383 35.382-19.534 0-35.376-15.842-35.376-35.382 0-19.534 15.842-35.377 35.376-35.377 19.54 0 35.383 15.843 35.383 35.377z"/><path fill="#e8a215" d="M621.598 280.451c-.787 1.186-1.903 2.13-3.351 2.834-1.447.703-3.123 1.11-5.026 1.22v2.937c0 .358-.117.655-.35.89-.235.233-.546.35-.932.35-.358 0-.655-.11-.89-.33-.234-.222-.35-.525-.35-.91v-2.937c-2.979-.193-5.765-.841-8.356-1.944a1.878 1.878 0 0 1-.828-.683 1.743 1.743 0 0 1-.33-1.013c0-.469.158-.875.475-1.22s.724-.517 1.221-.517c.275 0 .537.055.785.165a19.282 19.282 0 0 0 7.033 1.655v-9.514c-1.877-.497-3.454-1.034-4.737-1.613a8.573 8.573 0 0 1-3.206-2.462c-.855-1.06-1.282-2.405-1.282-4.032 0-1.434.352-2.758 1.055-3.971s1.75-2.22 3.143-3.02c1.392-.8 3.068-1.282 5.027-1.448v-2.895c0-.358.116-.662.35-.91.235-.248.532-.372.89-.372s.661.124.91.372.372.552.372.91v2.854c2.703.11 5.102.566 7.197 1.365.772.276 1.16.827 1.16 1.655 0 .441-.153.841-.456 1.2-.303.358-.704.537-1.2.537-.166 0-.386-.055-.662-.166-1.875-.661-3.888-1.033-6.039-1.116v9.844c1.985.47 3.633.98 4.943 1.53a8.33 8.33 0 0 1 3.289 2.462c.882 1.09 1.323 2.53 1.323 4.322 0 1.462-.393 2.786-1.178 3.971zm-14.974-14.601c.923.662 2.282 1.227 4.075 1.696v-9.1c-1.655.221-2.979.724-3.972 1.51-.992.785-1.49 1.813-1.49 3.081 0 1.214.463 2.15 1.387 2.813zm12.43 10.382c0-1.075-.49-1.909-1.47-2.502-.978-.593-2.433-1.151-4.363-1.675v8.893c3.888-.276 5.833-1.847 5.833-4.716z"/><circle cx="763.809" cy="651.372" r="33.256" fill="#3cd278"/><path fill="#fff" d="M757.335 663.215a2.999 2.999 0 0 1-2.121-.879l-4.738-4.738a3 3 0 1 1 4.243-4.242l2.616 2.616 15.565-15.565a3 3 0 1 1 4.242 4.243l-17.686 17.686a2.999 2.999 0 0 1-2.121.879z"/><path fill="#ffc6b2" d="M960.18 587.246s5.877 11.021 2.98 18.127-34.04 7.704-34.04 7.704-2.721-7.262-2.73-8.107c-.009-.844 3.163-13.486 3.899-14.548.735-1.062 8.534-7.985 8.534-7.985l21.356 4.809zM890.759 601.146l-13.922 6.02a8.75 8.75 0 0 1-11.08-3.71l-20.58-38.26 4.05-7.92 26.168 22.34s6.646-3.311 6.962-3.311l8.402 24.84z"/><path d="M920.408 768.819h28.267v4.728h-28.267z" transform="rotate(-.222 934.537 771.175)"/><path d="m920.4 768.878 28.266-.118-.053-13.472-16.382.074z"/><path fill="#fff" d="M920.395 768.599h13.935v.5h-13.935z" transform="rotate(-.223 927.373 768.846)"/><path fill="#fff" d="M942.704 772.24a5 5 0 0 0 .152 1.27l.567-.002c0-.023 0-.045-.012-.068a5.065 5.065 0 0 1-.14-1.201 5.315 5.315 0 0 1 1.11-3.293 1.95 1.95 0 0 1 .146-.17 5.389 5.389 0 0 1 4.131-1.967l-.002-.567a5.968 5.968 0 0 0-4.73 2.365c-.046.058-.08.114-.124.171a5.878 5.878 0 0 0-1.098 3.463z"/><path d="M880.126 768.819h28.267v4.728h-28.267z" transform="rotate(-.222 894.256 771.175)"/><path d="m880.117 768.878 28.267-.118-.052-13.472-16.383.074z"/><path fill="#fff" d="M880.114 768.599h13.934v.5h-13.934z" transform="rotate(-.223 887.09 768.846)"/><path fill="#fff" d="M902.422 772.24a5 5 0 0 0 .152 1.27l.567-.002c0-.023 0-.045-.012-.068a5.065 5.065 0 0 1-.14-1.201 5.315 5.315 0 0 1 1.11-3.293 1.94 1.94 0 0 1 .146-.17 5.389 5.389 0 0 1 4.131-1.967l-.002-.567a5.968 5.968 0 0 0-4.73 2.365c-.045.058-.08.114-.124.171a5.878 5.878 0 0 0-1.098 3.463z"/><path fill="#0039b2" d="M887.689 756.925c4.057 1.792 24.172 1.071 25.344.149.258-.207 11.634-88.609 11.634-88.609s3.328 87.584 3.536 87.79c1.141 1.158 19.127 2.847 23.548.336.645-.364.294-90.71.294-90.71-.132.27 7.182-28.436-4.805-39.74l-47.777.82s-12.499 129.644-11.774 129.964z"/><path fill="#fff" d="M924.64 668.851c-.018 0-.037-.15-.05-.45-.012-.3-.02-.753.002-1.356.03-.604.055-1.36.269-2.265.055-.226.134-.461.273-.7l.47-.625c.357-.404.764-.812 1.226-1.21 1.578-1.32 3.223-2.548 4.397-4.21 1.185-1.641 1.899-3.587 2.202-5.594.406-2.365.308-4.18.207-5.366-.113-1.192-.24-1.778-.195-1.787.017-.004.068.138.142.43s.169.735.252 1.333c.16 1.194.308 3.032-.074 5.445-.309 2.042-1.04 4.046-2.261 5.736-1.208 1.708-2.897 2.967-4.45 4.268-.46.386-.86.776-1.21 1.158-.16.202-.313.398-.46.586a2.333 2.333 0 0 0-.25.609c-.226.853-.281 1.61-.338 2.204-.097 1.195-.11 1.794-.152 1.794zM913.422 654.503a6.704 6.704 0 0 1-1.514-.175h-.001c-3.226-.757-5.399-4.054-4.947-7.505l.79-6.048a.982.982 0 0 1 .376-.654.969.969 0 0 1 .716-.198l11.027 1.456a.98.98 0 0 1 .85 1.09l-.84 6.335a6.559 6.559 0 0 1-2.76 4.533 6.447 6.447 0 0 1-3.697 1.166zm-1.401-.662a5.98 5.98 0 0 0 4.813-.915 6.055 6.055 0 0 0 2.548-4.187l.841-6.334a.48.48 0 0 0-.419-.53l-11.027-1.456a.476.476 0 0 0-.344.097.482.482 0 0 0-.187.322l-.79 6.05c-.419 3.2 1.586 6.253 4.565 6.953zM942.964 651.166a4.61 4.61 0 0 1-2.613-.813 4.69 4.69 0 0 1-1.998-3.226l-.626-4.451a.765.765 0 0 1 .657-.858l7.75-1.084a.756.756 0 0 1 .56.15c.164.125.27.306.296.508l.59 4.25c.34 2.464-1.195 4.831-3.498 5.39-.373.09-.747.134-1.118.134zm3.27-9.939c-.011 0-.022 0-.032.002l-7.75 1.084a.265.265 0 0 0-.23.295l.626 4.45a4.192 4.192 0 0 0 1.785 2.882 4.13 4.13 0 0 0 3.332.606c2.056-.5 3.425-2.623 3.118-4.835l-.59-4.252a.264.264 0 0 0-.26-.232z"/><path fill="#ff784b" d="M950.952 562.686c3.174 4.806 7.466 15.71 11.444 24.903.509 2.107-19.26 6.873-19.768 4.767-.064-.268 8.324-29.67 8.324-29.67z"/><path fill="#ffc837" d="M897.694 631.084c-2.098-9.699-4.217-63.555.317-68.078 9.859-9.837 41.818-9.981 52.257-.856 7.981 6.976 4.568 58.522 3.294 71.243-1.151 3.907-53.658 4.6-55.868-2.31z"/><path fill="#ffc837" d="M899.44 561.767s-20.577 14.477-21.764 15.883c-1.76 2.085 8.818 27.085 10.112 26.58l14.95-7.223c6.08-2.81 9.176-9.411 9.231-16.109.073-8.872-2.68-17.922-12.529-19.13z"/><path fill="#ffc6b2" d="M912.348 549.179s-6.27-1.48-6.879-4.963c-.61-3.483-.87-17.501 1.655-19.765 2.525-2.264 19.416-.261 19.242 0-.174.261-2.003 14.366-2.003 14.366l-12.015 10.362z"/><path fill="#fff" d="M909.907 583.008c.058-.01.251.515.338 1.63.078 1.1.023 2.836-.802 4.952-.716 1.78-1.89 3.369-3.324 4.626-1.43 1.267-3.066 2.243-4.707 3.14l-4.385 2.258c-.963.509-1.438.776-1.486.708-.037-.053.365-.436 1.28-1.051.909-.625 2.356-1.435 4.268-2.504 1.627-.89 3.217-1.843 4.584-3.054 1.369-1.203 2.467-2.691 3.148-4.378a12.875 12.875 0 0 0 1.023-4.691c.031-1.077-.024-1.623.063-1.636zM954.17 580.87c.143-.016.38.945.657 2.91l.554 5.008c.16 1.975.138 2.964-.008 2.98-.146.017-.38-.944-.66-2.906l-.555-5.009c-.155-1.978-.138-2.966.012-2.983z"/><path fill="#ffc6b2" d="m849.227 557.276-4.05 7.92s-3.7-1.823-3.922-3.64c-.413-3.365 2.976-5.301 2.976-5.301s-5.835-6.024-4.622-7.767c1.007-1.448 6.754 6.034 6.754 6.034s-.08-2.262 1.272-3.21c1.365-.934 1.592 5.964 1.592 5.964z"/><path d="M968.455 585.402c-1.566 2.527-3.866 4.523-6.28 6.241-4.371 3.109-9.21 5.472-14.138 7.581-4.51 1.922-9.236 3.652-14.126 3.728-3.98.05-7.897-.985-11.675-2.223-5.041-1.656-10.133-3.804-13.709-7.72-1.504-1.656-2.754-3.791-2.464-6.015.266-2.047 1.731-3.677 3.007-5.282a36.011 36.011 0 0 0 5.459-9.577c.973-2.565 1.604-5.61.114-7.91-1.643-2.54-5.156-3.108-7.316-5.218-2.275-2.236-2.641-5.925-1.567-8.92 1.074-3.007 3.336-5.433 5.749-7.518 1.175-1.01 2.426-1.971 3.348-3.21 1.655-2.21 1.794-6.127-.682-7.896-3.285-2.35-7.973.404-11.84-.746-3.057-.922-4.952-4.334-4.7-7.518.266-3.184 2.338-6.014 4.966-7.833 2.628-1.807 5.774-2.73 8.908-3.336 4.725-.922 9.742-1.213 14.278.43 4.536 1.63 8.49 5.509 9.11 10.298.58 4.371-1.605 8.68-1.479 13.09.177 6.152 4.649 11.665 10.21 14.403 1.256.619 3.36 1.39 5.319 1.757 6.658 1.25 13.633 2.918 18.56 7.58 1.176 1.112 2.237 2.401 2.793 3.93.455 1.263.556 2.628.644 3.98.43 6.116.746 12.699-2.489 17.904z"/><path d="M996.358 725.513h32.594v5.055h-32.594z" transform="rotate(-.222 1012.65 728.033)"/><path d="m996.358 725.577 32.594-.127-.056-14.4-20.242.078z"/><path fill="#fff" d="M996.353 725.296h17.274v.5h-17.274z" transform="rotate(-.223 1005 725.542)"/><path fill="#fff" d="M1022.579 729.172c.001.497.051.933.162 1.357l.606-.002c0-.025 0-.049-.012-.073a5.413 5.413 0 0 1-.15-1.284 5.681 5.681 0 0 1 1.186-3.52c.048-.061.097-.122.157-.182a5.76 5.76 0 0 1 4.416-2.103l-.003-.606a6.38 6.38 0 0 0-5.056 2.529c-.048.06-.085.121-.133.183a6.283 6.283 0 0 0-1.173 3.7z"/><path d="M1050.562 725.513h32.594v5.055h-32.594z" transform="rotate(-.222 1066.854 728.032)"/><path d="m1050.562 725.577 32.594-.127-.056-14.4-20.242.078z"/><path fill="#fff" d="M1050.558 725.296h17.273v.5h-17.273z" transform="rotate(-.223 1059.205 725.541)"/><path fill="#fff" d="M1076.783 729.172c.002.497.052.933.163 1.357l.606-.002c0-.025 0-.049-.013-.073a5.41 5.41 0 0 1-.15-1.284 5.681 5.681 0 0 1 1.186-3.52c.049-.061.097-.122.157-.182a5.76 5.76 0 0 1 4.416-2.103l-.002-.606a6.38 6.38 0 0 0-5.057 2.529c-.048.06-.084.121-.133.183a6.283 6.283 0 0 0-1.173 3.7z"/><path fill="#ffc6b2" d="m1030.963 554.977-14.275 36.978s-1.169 12.494-8.877 11.936c-7.708-.57-3.643-8.796-3.739-9.299-.095-.517-2.304 1.061-3.031 0-1.485-2.164 3.33-5.057 3.33-5.057l6.472-39.723 20.12 5.165z"/><path fill="#3cd278" d="M1025.456 509.474c-.11.09-6.601 4.083-10.224 13.695-3.623 9.611-1.922 15.304-1.33 15.822.59.517 15.082 3.327 17.078 3.253 1.997-.074 9.242-8.872 9.242-8.872l-14.766-23.898z"/><path fill="#fff" d="M1019.634 536.26c-.116.01-.44-1.833-.272-5.582a49.892 49.892 0 0 1 1.52-9.387c1.023-3.606 1.91-5.254 2.02-5.208.163.062-.48 1.792-1.37 5.377a49.196 49.196 0 0 0-1.5 9.262c-.286 3.688-.221 5.531-.398 5.539z"/><path fill="#1258ff" d="M1084.636 712.017c-3.752 5.778-23.419 2.673-25.145-.073-.245-.394-11.195-91.44-11.195-91.44s-17.723 90.69-18.28 91.016c-6.77 4.038-19.71 2.108-23.19.367-.544-.272 14.525-126.294 14.525-126.294s57.084-5.098 59.395.815c1.863 4.759 4.42 124.807 3.89 125.61z"/><path fill="#fff" d="M1079.085 686.979c-.143 0-.273-5.35-.332-16.167l.001-27.49c.06-10.806.19-16.156.337-16.156s.273 5.35.336 16.156l-.001 27.49c-.064 10.817-.19 16.167-.34 16.167zM1082.872 607.212c-.022.056-.558-.057-1.548-.522-.975-.475-2.427-1.318-3.969-2.91a15.529 15.529 0 0 1-3.033-4.697 15.527 15.527 0 0 1-1.121-5.476c-.014-2.215.43-3.832.795-4.854.382-1.024.686-1.48.743-1.454.078.033-.098.541-.36 1.57-.245 1.03-.58 2.604-.506 4.723.04 1.792.398 3.578 1.072 5.237a14.858 14.858 0 0 0 2.9 4.49c1.433 1.566 2.775 2.456 3.671 3.02.908.552 1.39.793 1.356.873zM1015.516 604.445c-.025-.077.44-.276 1.333-.722.885-.457 2.215-1.171 3.733-2.466a15.571 15.571 0 0 0 5.243-8.44c.488-1.932.54-3.44.558-4.435.005-.999-.022-1.504.06-1.515.063-.01.228.477.34 1.496.099 1.015.144 2.582-.303 4.61a16.25 16.25 0 0 1-5.468 8.802c-1.622 1.3-3.048 1.954-4.002 2.315-.965.35-1.474.418-1.494.355z"/><path fill="#3cd278" d="M1024.533 510.46c3.062-6.954 47.563-9.601 57.798.629 4.235 4.233 1.154 74.142 0 77.117-1.96 5.05-58.844 4.557-62.66-.62-.699-.948-2.986-59.3 4.862-77.127z"/><path fill="#ffc6b2" d="M1067.704 545.236c.077.384-.071 8.213-.071 8.213-1.46.845-23.776 3.614-23.776 3.614s.326 10.983 1.171 12.289c.845 1.306 40.81 5.143 45.859-2.193 2.837-4.123-.85-22.386-.85-22.386l-22.333.463z"/><path fill="#3cd278" d="M1065.415 545.313s-2.596-20.087-1.702-23.538c2.904-11.209 12.917-13.794 17.77-11.18 3.8 2.048 9.931 22.163 10.345 31.236.714 5.411-25.7 8.893-26.413 3.482z"/><path fill="#719bff" d="m993.539 533.213 15.001 40.797c.171.465.614.774 1.11.774h30.274l-15.87-43.162h-29.405c-.823 0-1.394.82-1.11 1.591z"/><path fill="#ffc6b2" d="m1043.852 557.063-6.034-1.104c-.244-.258-2.437-2.509-1.878-4.027.602-1.62 7.912 5.131 7.912 5.131z"/><path fill="#6385d2" d="m1024.053 531.622 15.871 43.162h2.73c.823 0 1.395-.819 1.11-1.59l-15-40.797a1.183 1.183 0 0 0-1.11-.775h-3.6z"/><path fill="#ffc6b2" d="M1045.691 496.048c1.43 1.655.754 5.008.712 8.088-.99 4.135 13.43 5.744 15.493.645-1.125-4.556-.903-10.698.298-15.43 1.2-4.73-16.503 6.697-16.503 6.697z"/><path fill="#ffc6b2" d="M1044.982 496.88c6.754 3.515 13.788-3.462 16.523-6.697.726-.837 1.172-1.453 1.172-1.453.168-.224 5.917-1.785 4.298-6.697-.837-2.57-5.749 0-5.749 0s-2.456-9.602-6.754-9.992c-4.299-.392-11.5 5.413-11.5 5.413s-.167.613-.334 1.62c-.782 4.243-2.344 15.35 2.344 17.805z"/><path fill="#2a0054" d="M1038.34 476.953c.614 1.507 2.233 2.066 4.298 2.12 4.633.17 11.387-2.344 13.117-2.456 2.456-.223 2.791 5.528 3.35 6.03.614.5 2.121-.614 2.121-.614s4.912-2.57 5.75 0c1.618 4.912-4.131 6.473-4.3 6.697 0 0-.445.616-1.171 1.453l.02 3.087s7.348-7.944 8.409-11.07c1.116-3.127-2.735-7.368-4.075-7.815-1.34-.39.28-9.602-.95-11.722-1.227-2.066-10.102.613-13.396 1.34-3.293.78-7.703-.893-11.666 1.505-3.963 2.401-3.517 6.533-1.507 11.445z"/><path fill="#ffc6b2" d="M1045.028 569.347s-14.95 3.77-17.087-7.153c-2.078-10.593 9.217-6.479 9.877-6.235l6.034 1.104 1.176 12.284z"/><path fill="#fff" d="M1063.998 524.25c.175.017-.034 2.195.01 6.59a65.45 65.45 0 0 0 .954 11.112c.184 1.08.314 2.043.533 2.8.217.762.546 1.325.91 1.689.738.74 1.353.719 1.33.816.033.044-.66.231-1.601-.522-.458-.366-.892-1-1.17-1.813-.284-.818-.448-1.768-.665-2.855a66.144 66.144 0 0 1-.964-11.227c.03-2.22.18-3.873.32-4.966.142-1.095.272-1.63.343-1.624z"/><path fill="#2a0054" d="M1048.784 497.893a9.633 9.633 0 0 1-2.458-.316l.064-.242c2.31.61 4.838.305 6.936-.836l.119.22a9.792 9.792 0 0 1-4.661 1.174z"/><path fill="#fff" d="M1046.774 597.75c.065.033-.124.552-.555 1.564-.417 1.016-1.123 2.514-1.761 4.6-.553 1.756-.846 3.6-.668 5.414a11.177 11.177 0 0 0 1.827 5.09c.573.91 1.244 1.573 1.782 2.236.54.652.896 1.317 1.03 1.885.271 1.169-.167 1.723-.198 1.677-.095-.02.163-.568-.186-1.56-.174-.493-.522-1.045-1.07-1.64-.535-.594-1.279-1.273-1.917-2.224a11.847 11.847 0 0 1-1.938-5.398c-.188-1.93.125-3.867.696-5.681.72-2.135 1.52-3.603 2.043-4.574.537-.967.849-1.422.915-1.389zM1064.161 505.126s-8.592 8.268-8.755 8.268c-.028-.095-3.808-5.792-3.808-5.792l9.736-6.129c.014.109 2.827 3.653 2.827 3.653zM1051.657 507.767s-4.155 3.788-4.246 3.819-4.17-6.645-4.17-6.645l3.26-2.976 5.097 5.637"/><path d="M1076.128 556.764c-.024.13-.927.07-2.456-.711-1.262-.694-2.444-1.47-3.745-1.911-1.51-.577-2.343-.493-2.357-.669-.038-.113.874-.474 2.575.032 1.405.48 2.622 1.286 3.85 1.958 1.414.858 2.174 1.143 2.133 1.3z"/><path fill="#fff" d="M1011.437 687.823c-.035-.007-.004-.392.095-1.16l.498-3.447 2.066-13.836 4.652-31.343c.966-6.155 1.761-10.745 2.332-13.791.286-1.524.52-2.661.684-3.417.165-.756.266-1.13.302-1.123.036.006.006.393-.093 1.16l-.497 3.446-2.063 13.826-4.652 31.343c-.969 6.16-1.765 10.753-2.336 13.801-.286 1.525-.52 2.662-.684 3.418-.165.756-.267 1.13-.304 1.123z"/><path fill="#719bff" d="m1031.2 342.04 22.56-50.239-54.282 21.786a.05.05 0 0 0-.015.084l31.658 28.385a.05.05 0 0 0 .08-.017z"/><path fill="#5388f2" d="m1050.875 294.92-32.048 36.107a.054.054 0 0 0-.005.007l-4.767 7.739a.05.05 0 0 1-.091-.016l-3.361-15.073c-.004-.019.003-.04 1.948-1.474l38.324-27.29z"/><path fill="#5388f2" d="m1014.157 338.786 8.192-4.506a.05.05 0 0 0 .01-.08l-3.49-3.13a.05.05 0 0 0-.076.011l-4.703 7.635c-.027.044.022.095.067.07z"/></svg>